SplineFontDB: 3.0
FontName: Oswald-Regular
FullName: Oswald Regular
FamilyName: Oswald
Weight: Regular
Copyright: Copyright (c) 2011-12 by vernon adams. All rights reserved.
Version: 2
ItalicAngle: 0
UnderlinePosition: 0
UnderlineWidth: 0
Ascent: 1638
Descent: 410
sfntRevision: 0x00010000
UFOAscent: 1638
UFODescent: -410
LayerCount: 2
Layer: 0 0 "Back"  1
Layer: 1 0 "Fore"  0
FSType: 0
OS2Version: 0
OS2_WeightWidthSlopeOnly: 0
OS2_UseTypoMetrics: 0
CreationTime: 1345470276
ModificationTime: 1348422491
PfmFamily: 33
TTFWeight: 400
TTFWidth: 5
LineGap: 0
VLineGap: 0
OS2TypoAscent: 2444
OS2TypoAOffset: 0
OS2TypoDescent: -591
OS2TypoDOffset: 0
OS2TypoLinegap: 0
OS2WinAscent: 2444
OS2WinAOffset: 0
OS2WinDescent: 591
OS2WinDOffset: 0
HheadAscent: 2444
HheadAOffset: 0
HheadDescent: -591
HheadDOffset: 0
OS2Vendor: 'newt'
Lookup: 258 0 0 "'kern' Horizontal Kerning lookup 0"  {"'kern' Horizontal Kerning lookup 0 per glyph data 0"  "'kern' Horizontal Kerning lookup 0 kerning class 1"  } ['kern' ('DFLT' <'dflt' > 'latn' <'dflt' > ) ]
MarkAttachClasses: 1
DEI: 91125
KernClass2: 34 26 "'kern' Horizontal Kerning lookup 0 kerning class 1" 
 81 A Aacute Abreve Acircumflex Adieresis Agrave Amacron Aogonek Aring Atilde uni0202
 75 D Eth O Oacute Ocircumflex Odieresis Ograve Oslash Otilde Q uni020C uni020E
 1 F
 1 J
 11 Jcircumflex
 1 K
 1 L
 1 P
 44 R Racute Rcaron Rcommaaccent uni0210 uni0212
 22 T Tcommaaccent uni021A
 6 Tcaron
 45 U Uacute Ucircumflex Udieresis Ugrave uni0216
 1 V
 1 W
 18 Y Yacute Ydieresis
 69 b o oacute ocircumflex odieresis ograve oslash otilde p thorn uni020F
 1 d
 6 dcaron
 1 f
 1 g
 6 gbreve
 11 gcircumflex
 10 gdotaccent
 24 h hbar m n nacute ntilde
 27 k kcommaaccent kgreenlandic
 10 quoteright
 29 r rcaron rcommaaccent uni0213
 6 racute
 22 t tcommaaccent uni021B
 1 v
 1 w
 1 x
 18 y yacute ydieresis
 81 A Aacute Abreve Acircumflex Adieresis Agrave Amacron Aogonek Aring Atilde uni0202

StartChar: A
Encoding: 33 65 0
Width: 1056
VWidth: 0
Flags: HW
LayerCount: 2
Fore
SplineSet
400 640 m 1
 656 640 l 1
 528 1408 l 1
 400 640 l 1
16 0 m 1
 400 1792 l 1
 656 1792 l 1
 1040 0 l 1
 784 0 l 1
 688 448 l 1
 368 448 l 1
 272 0 l 1
 16 0 l 1
EndSplineSet
EndChar

StartChar: AE
Encoding: 129 198 1
Width: 1408
VWidth: 0
Flags: HW
LayerCount: 2
Fore
SplineSet
393 640 m 1
 640 640 l 1
 640 1298 l 1
 393 640 l 1
-126 0 m 1
 638 1792 l 1
 1344 1792 l 1
 1344 1600 l 1
 896 1600 l 1
 896 1024 l 1
 1216 1024 l 1
 1216 832 l 1
 896 832 l 1
 896 192 l 1
 1344 192 l 1
 1344 0 l 1
 640 0 l 1
 640 448 l 1
 320 448 l 1
 129 0 l 1
 -126 0 l 1
EndSplineSet
EndChar

StartChar: B
Encoding: 34 66 11
Width: 1146
VWidth: 0
Flags: HW
LayerCount: 2
Fore
SplineSet
384 1024 m 1
 512 1024 l 2
 724 1024 832 1128 832 1344 c 0
 832 1597 636 1600 384 1600 c 1
 384 1024 l 1
384 192 m 1
 512 192 l 2
 733 192 832 288 832 512 c 0
 832 736 733 832 512 832 c 2
 384 832 l 1
 384 192 l 1
128 0 m 1
 128 1792 l 1
 512 1792 l 2
 835 1792 1058 1660 1058 1344 c 0
 1058 1111 955 1012 768 960 c 1
 967 894 1088 779 1088 512 c 0
 1088 196 892 0 576 0 c 2
 128 0 l 1
EndSplineSet
EndChar

StartChar: C
Encoding: 35 67 12
Width: 1107
VWidth: 0
Flags: HW
LayerCount: 2
Fore
SplineSet
588 -18 m 0
 203 -18 96 256 96 641 c 2
 96 1152 l 2
 96 1537 203 1810 588 1810 c 0
 929 1810 1051 1601 1064 1275 c 0
 1065 1256 1065 1236 1065 1216 c 1
 809 1216 l 1
 809 1235 809 1255 809 1273 c 0
 806 1462 783 1600 588 1600 c 0
 374 1600 352 1434 352 1216 c 2
 352 576 l 2
 352 380 393 192 588 192 c 0
 784 192 809 380 809 576 c 2
 809 640 l 1
 1065 640 l 1
 1065 576 l 2
 1065 220 947 -18 588 -18 c 0
EndSplineSet
EndChar

StartChar: Cdotaccent
Encoding: 197 266 17
Width: 1107
VWidth: 0
Flags: HW
LayerCount: 2
Fore
SplineSet
452 1912 m 1
 452 2168 l 1
 708 2168 l 1
 708 1912 l 1
 452 1912 l 1
EndSplineSet
Refer: 12 67 N 1 0 0 1 0 0 2
EndChar

StartChar: D
Encoding: 36 68 18
Width: 1133
VWidth: 0
Flags: HW
LayerCount: 2
Fore
SplineSet
128 0 m 1
 128 1792 l 1
 525 1792 l 2
 900 1792 1037 1656 1037 1280 c 2
 1037 576 l 2
 1037 195 905 0 523 0 c 2
 128 0 l 1
384 192 m 1
 525 192 l 2
 796 192 781 376 781 640 c 2
 781 1216 l 2
 781 1461 774 1600 520 1600 c 2
 384 1600 l 1
 384 192 l 1
EndSplineSet
EndChar

StartChar: E
Encoding: 37 69 21
Width: 861
VWidth: 0
Flags: HW
LayerCount: 2
Fore
SplineSet
128 0 m 1
 128 1792 l 1
 832 1792 l 1
 832 1600 l 1
 384 1600 l 1
 384 1024 l 1
 704 1024 l 1
 704 832 l 1
 384 832 l 1
 384 192 l 1
 832 192 l 1
 832 0 l 1
 128 0 l 1
EndSplineSet
EndChar

StartChar: Eth
Encoding: 139 208 29
Width: 1152
VWidth: 0
Flags: HW
LayerCount: 2
Fore
SplineSet
128 0 m 1
 128 852 l 1
 34 852 l 1
 34 1004 l 1
 128 1004 l 1
 128 1792 l 1
 512 1792 l 2
 887 1792 1024 1656 1024 1280 c 2
 1024 576 l 2
 1024 195 892 0 510 0 c 2
 128 0 l 1
384 192 m 1
 512 192 l 2
 783 192 768 376 768 640 c 2
 768 1216 l 2
 768 1461 761 1600 507 1600 c 2
 384 1600 l 1
 384 1004 l 1
 528 1004 l 1
 528 852 l 1
 384 852 l 1
 384 192 l 1
EndSplineSet
EndChar

StartChar: Euro
Encoding: 392 8364 30
Width: 971
VWidth: 0
Flags: HW
LayerCount: 2
Fore
SplineSet
494 -27 m 0
 169 -27 78 194 68 508 c 1
 0 508 l 1
 0 674 l 1
 68 674 l 1
 68 827 l 1
 0 827 l 1
 0 993 l 1
 70 993 l 1
 80 1305 166 1536 487 1536 c 0
 799 1536 900 1325 903 1018 c 1
 653 1018 l 1
 653 1162 623 1309 492 1309 c 0
 326 1309 324 1160 322 993 c 1
 518 993 l 1
 518 827 l 1
 322 827 l 1
 322 674 l 1
 518 674 l 1
 518 508 l 1
 324 508 l 1
 331 351 343 205 499 205 c 0
 647 205 662 386 662 541 c 1
 909 541 l 1
 909 218 819 -27 494 -27 c 0
EndSplineSet
EndChar

StartChar: F
Encoding: 38 70 31
Width: 821
VWidth: 0
Flags: HW
LayerCount: 2
Fore
SplineSet
128 0 m 1
 128 1792 l 1
 832 1792 l 1
 832 1600 l 1
 384 1600 l 1
 384 1024 l 1
 704 1024 l 1
 704 832 l 1
 384 832 l 1
 384 0 l 1
 128 0 l 1
EndSplineSet
EndChar

StartChar: G
Encoding: 39 71 32
Width: 1199
VWidth: 0
Flags: HW
LayerCount: 2
Fore
SplineSet
608 -18 m 0
 190 -18 96 276 96 698 c 2
 96 1152 l 2
 96 1537 233 1810 618 1810 c 0
 958 1810 1091 1600 1104 1271 c 0
 1105 1253 1105 1235 1105 1216 c 1
 849 1216 l 1
 849 1234 849 1252 849 1270 c 0
 845 1461 814 1600 618 1600 c 0
 404 1600 352 1434 352 1216 c 2
 352 640 l 2
 352 404 387 192 608 192 c 0
 828 192 864 406 864 640 c 2
 864 704 l 1
 608 704 l 1
 608 894 l 1
 1120 894 l 1
 1120 0 l 1
 928 0 l 1
 864 192 l 1
 826 86 753 -18 608 -18 c 0
EndSplineSet
EndChar

StartChar: Gdotaccent
Encoding: 217 288 36
Width: 1199
VWidth: 0
Flags: HW
LayerCount: 2
Fore
SplineSet
480 1912 m 1
 480 2168 l 1
 736 2168 l 1
 736 1912 l 1
 480 1912 l 1
EndSplineSet
Refer: 32 71 N 1 0 0 1 0 0 2
EndChar

StartChar: H
Encoding: 40 72 37
Width: 1216
VWidth: 0
Flags: HW
LayerCount: 2
Fore
SplineSet
128 0 m 1
 128 1792 l 1
 384 1792 l 1
 384 1024 l 1
 832 1024 l 1
 832 1792 l 1
 1088 1792 l 1
 1088 0 l 1
 832 0 l 1
 832 832 l 1
 384 832 l 1
 384 0 l 1
 128 0 l 1
EndSplineSet
EndChar

StartChar: Hbar
Encoding: 223 294 38
Width: 1216
VWidth: 0
Flags: HW
LayerCount: 2
Fore
SplineSet
384 1024 m 1
 832 1024 l 1
 832 1355 l 1
 384 1355 l 1
 384 1024 l 1
128 0 m 1
 128 1355 l 1
 30 1355 l 1
 30 1494 l 1
 128 1494 l 1
 128 1792 l 1
 384 1792 l 1
 384 1494 l 1
 832 1494 l 1
 832 1792 l 1
 1088 1792 l 1
 1088 1494 l 1
 1186 1494 l 1
 1186 1355 l 1
 1088 1355 l 1
 1088 0 l 1
 832 0 l 1
 832 832 l 1
 384 832 l 1
 384 0 l 1
 128 0 l 1
EndSplineSet
EndChar

StartChar: I
Encoding: 41 73 40
Width: 542
VWidth: 0
Flags: HW
LayerCount: 2
Fore
SplineSet
140 0 m 1
 140 1792 l 1
 396 1792 l 1
 396 0 l 1
 140 0 l 1
EndSplineSet
EndChar

StartChar: Idotaccent
Encoding: 233 304 46
Width: 542
VWidth: 0
Flags: HW
LayerCount: 2
Fore
SplineSet
140 1912 m 1
 140 2168 l 1
 396 2168 l 1
 396 1912 l 1
 140 1912 l 1
EndSplineSet
Refer: 40 73 N 1 0 0 1 0 0 2
EndChar

StartChar: J
Encoding: 42 74 51
Width: 640
VWidth: 0
Flags: HW
LayerCount: 2
Fore
SplineSet
0 0 m 1
 0 192 l 1
 210 192 256 233 256 448 c 2
 256 1792 l 1
 512 1792 l 1
 512 448 l 2
 512 138 440 0 128 0 c 2
 0 0 l 1
EndSplineSet
EndChar

StartChar: K
Encoding: 43 75 53
Width: 1118
VWidth: 0
Flags: HW
LayerCount: 2
Fore
SplineSet
128 0 m 1
 128 1792 l 1
 384 1792 l 1
 384 1024 l 1
 768 1792 l 1
 1088 1792 l 1
 703 1088 l 1
 1152 0 l 1
 832 0 l 1
 512 832 l 1
 384 576 l 1
 384 0 l 1
 128 0 l 1
EndSplineSet
EndChar

StartChar: L
Encoding: 44 76 55
Width: 823
VWidth: 0
Flags: HW
LayerCount: 2
Fore
SplineSet
128 0 m 1
 128 1792 l 1
 384 1792 l 1
 384 192 l 1
 832 192 l 1
 832 0 l 1
 128 0 l 1
EndSplineSet
EndChar

StartChar: Lslash
Encoding: 250 321 60
Width: 945
VWidth: 0
Flags: HW
LayerCount: 2
Fore
SplineSet
177 0 m 1
 177 858 l 1
 49 787 l 1
 49 993 l 1
 177 1064 l 1
 177 1792 l 1
 433 1792 l 1
 433 1207 l 1
 699 1355 l 1
 699 1149 l 1
 433 1001 l 1
 433 192 l 1
 881 192 l 1
 881 0 l 1
 177 0 l 1
EndSplineSet
EndChar

StartChar: M
Encoding: 45 77 61
Width: 1472
VWidth: 0
Flags: HW
LayerCount: 2
Fore
SplineSet
128 0 m 1
 128 1792 l 1
 482 1792 l 1
 736 420 l 1
 990 1792 l 1
 1344 1792 l 1
 1344 0 l 1
 1088 0 l 1
 1088 1414 l 1
 832 0 l 1
 640 0 l 1
 384 1414 l 1
 384 0 l 1
 128 0 l 1
EndSplineSet
EndChar

StartChar: N
Encoding: 46 78 62
Width: 1152
VWidth: 0
Flags: HW
LayerCount: 2
Fore
SplineSet
128 0 m 1
 128 1792 l 1
 320 1792 l 1
 768 684 l 1
 768 1792 l 1
 1024 1792 l 1
 1024 0 l 1
 842 0 l 1
 384 1192 l 1
 384 0 l 1
 128 0 l 1
EndSplineSet
EndChar

StartChar: O
Encoding: 47 79 67
Width: 1180
VWidth: 0
Flags: HW
LayerCount: 2
Fore
SplineSet
590 -18 m 0
 223 -18 96 211 96 576 c 2
 96 1226 l 2
 96 1591 223 1810 590 1810 c 0
 954 1810 1084 1586 1084 1226 c 2
 1084 576 l 2
 1084 216 954 -18 590 -18 c 0
590 192 m 0
 782 192 828 320 828 512 c 2
 828 1290 l 2
 828 1482 782 1600 590 1600 c 0
 398 1600 352 1482 352 1290 c 2
 352 512 l 2
 352 320 398 192 590 192 c 0
EndSplineSet
EndChar

StartChar: OE
Encoding: 264 338 68
Width: 1664
VWidth: 0
Flags: HW
LayerCount: 2
Fore
SplineSet
640 192 m 0
 832 192 896 320 896 512 c 2
 896 1294 l 1
 893 1478 827 1600 640 1600 c 0
 448 1600 384 1472 384 1280 c 2
 384 512 l 2
 384 320 448 192 640 192 c 0
640 -18 m 0
 273 -18 128 211 128 576 c 2
 128 1216 l 2
 128 1581 273 1810 640 1810 c 0
 772 1810 850 1748 896 1664 c 1
 896 1792 l 1
 1600 1792 l 1
 1600 1600 l 1
 1152 1600 l 1
 1152 1024 l 1
 1472 1024 l 1
 1472 832 l 1
 1152 832 l 1
 1152 192 l 1
 1600 192 l 1
 1600 0 l 1
 896 0 l 1
 896 128 l 1
 852 43 772 -18 640 -18 c 0
EndSplineSet
EndChar

StartChar: Oslash
Encoding: 147 216 76
Width: 1180
VWidth: 0
Flags: HW
LayerCount: 2
Fore
SplineSet
590 192 m 0
 782 192 828 320 828 512 c 2
 828 1290 l 2
 828 1368 821 1433 799 1484 c 1
 463 219 l 1
 496 201 538 192 590 192 c 0
387 301 m 1
 723 1571 l 1
 689 1590 646 1600 590 1600 c 0
 398 1600 352 1482 352 1290 c 2
 352 512 l 2
 352 427 361 355 387 301 c 1
364 -156 m 1
 274 -128 l 1
 319 43 l 1
 158 134 96 322 96 576 c 2
 96 1226 l 2
 96 1591 223 1810 590 1810 c 0
 662 1810 725 1802 779 1785 c 1
 821 1944 l 1
 914 1920 l 1
 868 1746 l 1
 1023 1655 1084 1472 1084 1226 c 2
 1084 576 l 2
 1084 216 954 -18 590 -18 c 0
 521 -18 460 -10 407 6 c 1
 364 -156 l 1
EndSplineSet
EndChar

StartChar: P
Encoding: 48 80 78
Width: 1041
VWidth: 0
Flags: HW
LayerCount: 2
Fore
SplineSet
384 1024 m 1
 448 1024 l 2
 664 1024 768 1066 768 1280 c 0
 768 1529 702 1600 448 1600 c 2
 384 1600 l 1
 384 1024 l 1
128 0 m 1
 128 1792 l 1
 576 1792 l 2
 896 1792 1024 1600 1024 1280 c 0
 1024 987 865 832 576 832 c 2
 384 832 l 1
 384 0 l 1
 128 0 l 1
EndSplineSet
EndChar

StartChar: Q
Encoding: 49 81 79
Width: 1180
VWidth: 0
Flags: HW
LayerCount: 2
Fore
SplineSet
590 192 m 0
 782 192 828 320 828 512 c 2
 828 1290 l 2
 828 1482 782 1600 590 1600 c 0
 398 1600 352 1482 352 1290 c 2
 352 512 l 2
 352 320 398 192 590 192 c 0
1063 -256 m 1
 910 -256 750 -126 690 -11 c 1
 659 -16 626 -18 590 -18 c 0
 223 -18 96 211 96 576 c 2
 96 1226 l 2
 96 1591 223 1810 590 1810 c 0
 954 1810 1084 1586 1084 1226 c 2
 1084 576 l 2
 1084 330 1023 143 869 49 c 1
 910 -11 1005 -46 1063 -46 c 1
 1063 -256 l 1
EndSplineSet
EndChar

StartChar: R
Encoding: 50 82 80
Width: 1108
VWidth: 0
Flags: HW
LayerCount: 2
Fore
SplineSet
384 1024 m 1
 448 1024 l 2
 655 1024 768 1103 768 1312 c 0
 768 1521 655 1600 448 1600 c 2
 384 1600 l 1
 384 1024 l 1
128 0 m 1
 128 1792 l 1
 448 1792 l 2
 813 1792 1024 1668 1024 1312 c 0
 1024 1101 949 950 800 896 c 1
 1088 0 l 1
 834 0 l 1
 576 832 l 1
 384 832 l 1
 384 0 l 1
 128 0 l 1
EndSplineSet
EndChar

StartChar: S
Encoding: 51 83 84
Width: 1102
VWidth: 0
Flags: HW
LayerCount: 2
Fore
SplineSet
595 -18 m 0
 260 -18 102 199 83 512 c 1
 339 576 l 1
 348 391 401 192 595 192 c 0
 723 192 787 256 787 384 c 0
 787 545 688 629 595 704 c 2
 275 960 l 1
 165 1046 82 1188 82 1378 c 0
 82 1644 262 1810 531 1810 c 0
 826 1810 996 1658 1036 1402 c 0
 1039 1383 1041 1364 1043 1344 c 1
 787 1280 l 1
 786 1297 784 1314 782 1331 c 0
 762 1479 694 1600 531 1600 c 0
 407 1600 339 1527 339 1405 c 0
 339 1294 397 1208 467 1152 c 2
 787 896 l 2
 918 790 1043 630 1043 401 c 0
 1043 135 864 -18 595 -18 c 0
EndSplineSet
EndChar

StartChar: T
Encoding: 52 84 90
Width: 894
VWidth: 0
Flags: HW
LayerCount: 2
Fore
SplineSet
319 0 m 1
 319 1564 l 1
 -1 1564 l 1
 -1 1792 l 1
 895 1792 l 1
 895 1564 l 1
 575 1564 l 1
 575 0 l 1
 319 0 l 1
EndSplineSet
EndChar

StartChar: Thorn
Encoding: 153 222 92
Width: 952
VWidth: 0
Flags: HW
LayerCount: 2
Fore
SplineSet
324 581 m 1
 369 581 l 2
 562 581 669 642 669 888 c 0
 669 1110 586 1188 401 1188 c 2
 324 1188 l 1
 324 581 l 1
72 0 m 1
 72 1792 l 1
 324 1792 l 1
 324 1411 l 1
 504 1411 l 2
 799 1411 931 1210 931 886 c 0
 931 533 772 364 457 364 c 2
 326 364 l 1
 326 0 l 1
 72 0 l 1
EndSplineSet
EndChar

StartChar: U
Encoding: 53 85 93
Width: 1252
VWidth: 0
Flags: HW
LayerCount: 2
Fore
SplineSet
626 -19 m 0
 228 -19 114 245 114 640 c 2
 114 1792 l 1
 370 1792 l 1
 370 640 l 2
 370 403 389 192 626 192 c 0
 863 192 882 403 882 640 c 2
 882 1792 l 1
 1138 1792 l 1
 1138 640 l 2
 1138 245 1024 -19 626 -19 c 0
EndSplineSet
EndChar

StartChar: V
Encoding: 54 86 104
Width: 1048
VWidth: 0
Flags: HW
LayerCount: 2
Fore
SplineSet
396 0 m 1
 12 1792 l 1
 268 1792 l 1
 457 832 l 1
 523 384 l 1
 591 832 l 1
 780 1792 l 1
 1036 1792 l 1
 652 0 l 1
 396 0 l 1
EndSplineSet
EndChar

StartChar: W
Encoding: 55 87 105
Width: 1558
VWidth: 0
Flags: HW
LayerCount: 2
Fore
SplineSet
331 0 m 1
 11 1792 l 1
 267 1792 l 1
 395 960 l 1
 460 448 l 1
 523 960 l 1
 651 1792 l 1
 907 1792 l 1
 1035 960 l 1
 1098 448 l 1
 1163 960 l 1
 1291 1792 l 1
 1547 1792 l 1
 1227 0 l 1
 971 0 l 1
 843 832 l 1
 779 1344 l 1
 715 832 l 1
 587 0 l 1
 331 0 l 1
EndSplineSet
EndChar

StartChar: X
Encoding: 56 88 110
Width: 1070
VWidth: 0
Flags: HW
LayerCount: 2
Fore
SplineSet
25 0 m 1
 343 929 l 1
 23 1792 l 1
 279 1792 l 1
 535 1088 l 1
 791 1792 l 1
 1047 1792 l 1
 727 933 l 1
 1043 0 l 1
 789 0 l 1
 535 768 l 1
 281 0 l 1
 25 0 l 1
EndSplineSet
EndChar

StartChar: Y
Encoding: 57 89 111
Width: 1018
VWidth: 0
Flags: HW
LayerCount: 2
Fore
SplineSet
381 0 m 1
 381 576 l 1
 -3 1792 l 1
 253 1792 l 1
 509 896 l 1
 765 1792 l 1
 1021 1792 l 1
 637 576 l 1
 637 0 l 1
 381 0 l 1
EndSplineSet
EndChar

StartChar: Z
Encoding: 58 90 116
Width: 951
VWidth: 0
Flags: HW
LayerCount: 2
Fore
SplineSet
62 0 m 1
 62 192 l 1
 638 1600 l 1
 126 1600 l 1
 126 1792 l 1
 894 1792 l 1
 894 1600 l 1
 318 192 l 1
 894 192 l 1
 894 0 l 1
 62 0 l 1
EndSplineSet
EndChar

StartChar: Zdotaccent
Encoding: 300 379 119
Width: 951
VWidth: 0
Flags: HW
LayerCount: 2
Fore
SplineSet
350 1912 m 1
 350 2168 l 1
 606 2168 l 1
 606 1912 l 1
 350 1912 l 1
EndSplineSet
Refer: 116 90 N 1 0 0 1 0 0 2
EndChar

StartChar: a
Encoding: 65 97 120
Width: 955
VWidth: 0
Flags: HW
PickledData: "(dp1
S'com.typemytype.robofont.layerData'
p2
(dp3
S'back'
p4
(dp5
S'name'
p6
S'a'
sS'lib'
p7
(dp8
sS'unicodes'
p9
(tsS'width'
p10
F912
sS'contours'
p11
(tsS'components'
p12
(tsS'anchors'
p13
(tsss."
LayerCount: 2
Fore
SplineSet
468 192 m 0
 530 192 569 250 596 286 c 1
 596 640 l 1
 495 572 340 506 340 351 c 0
 340 255 376 192 468 192 c 0
340 -18 m 0
 192 -18 84 134 84 283 c 0
 84 616 349 707 596 804 c 1
 596 896 l 2
 596 1009 575 1100 468 1100 c 0
 374 1100 346 1025 341 929 c 0
 340 918 340 907 340 896 c 1
 84 896 l 1
 87 1138 225 1298 468 1298 c 0
 711 1298 852 1134 852 896 c 2
 852 320 l 2
 852 189 860 91 885 0 c 1
 630 0 l 1
 596 192 l 1
 545 91 488 -18 340 -18 c 0
EndSplineSet
EndChar

StartChar: acute
Encoding: 113 180 124
Width: 640
VWidth: 0
Flags: HW
LayerCount: 2
Fore
SplineSet
128 1408 m 1
 256 1792 l 1
 512 1792 l 1
 256 1408 l 1
 128 1408 l 1
EndSplineSet
EndChar

StartChar: ae
Encoding: 161 230 126
Width: 1465
VWidth: 0
Flags: HW
LayerCount: 2
Fore
SplineSet
864 764 m 1
 981 764 l 1
 1074 778 1120 794 1120 904 c 0
 1120 998 1087 1088 992 1088 c 0
 860 1088 864 896 864 764 c 1
481 192 m 0
 558 192 615 249 652 291 c 1
 629 375 612 472 609 580 c 1
 483 547 353 500 353 351 c 0
 353 255 389 192 481 192 c 0
353 -18 m 0
 205 -18 97 134 97 283 c 0
 97 596 346 667 609 725 c 1
 609 896 l 2
 609 1009 588 1100 481 1100 c 0
 376 1100 353 1008 353 896 c 1
 97 896 l 1
 100 1137 239 1298 481 1298 c 0
 607 1298 705 1242 737 1146 c 1
 783 1228 867 1298 992 1298 c 0
 1235 1298 1354 1127 1354 880 c 0
 1354 616 1105 641 864 619 c 1
 864 576 l 2
 864 427 847 185 992 185 c 0
 1111 185 1108 328 1108 448 c 1
 1363 448 l 1
 1363 158 1264 -18 991 -18 c 0
 829 -18 736 55 684 179 c 1
 611 73 529 -18 353 -18 c 0
EndSplineSet
EndChar

StartChar: ampersand
Encoding: 6 38 129
Width: 1344
VWidth: 0
Flags: HW
LayerCount: 2
Fore
SplineSet
545 1024 m 1
 624 1123 704 1307 704 1472 c 0
 704 1549 654 1600 576 1600 c 0
 483 1600 448 1502 448 1408 c 0
 448 1268 502 1130 545 1024 c 1
512 192 m 0
 619 192 688 260 736 320 c 1
 613 503 l 1
 573 565 503 637 481 704 c 1
 425 630 384 511 384 384 c 0
 384 285 414 192 512 192 c 0
512 -18 m 0
 271 -18 128 145 128 384 c 0
 128 619 254 781 384 896 c 1
 313 1041 192 1208 192 1408 c 0
 192 1645 339 1810 576 1810 c 0
 789 1810 960 1684 960 1472 c 0
 960 1229 768 1024 640 896 c 1
 896 512 l 1
 934 597 945 706 960 832 c 1
 1216 832 l 1
 1216 655 1132 464 1057 350 c 1
 1089 310 1147 256 1216 256 c 1
 1216 -18 l 1
 1064 -18 976 80 896 157 c 1
 817 56 688 -18 512 -18 c 0
EndSplineSet
EndChar

StartChar: asciicircum
Encoding: 62 94 132
Width: 896
VWidth: 0
Flags: HW
LayerCount: 2
Fore
SplineSet
64 896 m 1
 320 1536 l 1
 576 1536 l 1
 832 896 l 1
 576 896 l 1
 447 1344 l 1
 320 896 l 1
 64 896 l 1
EndSplineSet
EndChar

StartChar: asciitilde
Encoding: 94 126 133
Width: 960
VWidth: 0
Flags: HW
LayerCount: 2
Fore
SplineSet
613 812 m 0
 498 812 428 899 329 899 c 0
 292 899 281 874 281 832 c 1
 127 832 l 1
 127 977 200 1105 347 1105 c 0
 460 1105 527 1019 628 1019 c 0
 665 1019 679 1046 679 1088 c 1
 833 1088 l 1
 833 940 763 812 613 812 c 0
EndSplineSet
EndChar

StartChar: asterisk
Encoding: 10 42 134
Width: 896
VWidth: 0
Flags: HW
LayerCount: 2
Fore
SplineSet
343 904 m 1
 191 994 l 1
 363 1237 l 1
 106 1335 l 1
 167 1496 l 1
 412 1364 l 1
 384 1664 l 1
 576 1664 l 1
 547 1364 l 1
 793 1496 l 1
 854 1335 l 1
 597 1236 l 1
 769 994 l 1
 617 904 l 1
 480 1181 l 1
 343 904 l 1
EndSplineSet
EndChar

StartChar: at
Encoding: 32 64 135
Width: 1782
VWidth: 0
Flags: HW
LayerCount: 2
Fore
SplineSet
884 502 m 0
 927 502 954 512 958 542 c 1
 958 945 l 1
 954 973 940 996 904 996 c 0
 766 996 768 833 768 693 c 0
 768 595 792 502 884 502 c 0
958 -128 m 0
 370 -128 128 175 128 768 c 0
 128 1259 409 1572 896 1572 c 0
 1397 1572 1654 1269 1654 768 c 0
 1654 503 1541 292 1286 292 c 0
 1156 292 1058 341 1011 420 c 1
 983 357 931 292 840 292 c 0
 621 292 512 477 512 693 c 0
 512 937 585 1197 816 1197 c 0
 906 1197 954 1143 958 1061 c 1
 958 1188 l 1
 1214 1188 l 1
 1214 620 l 2
 1214 557 1218 502 1282 502 c 0
 1383 502 1398 659 1398 768 c 0
 1398 1150 1271 1380 896 1380 c 0
 544 1380 384 1126 384 768 c 0
 384 326 522 64 958 64 c 0
 1061 64 1173 93 1254 119 c 1
 1348 -77 l 1
 1230 -104 1100 -128 958 -128 c 0
EndSplineSet
EndChar

StartChar: b
Encoding: 66 98 137
Width: 1042
VWidth: 0
Flags: HW
PickledData: "(dp1
S'com.typemytype.robofont.layerData'
p2
(dp3
S'back'
p4
(dp5
S'name'
p6
S'b'
sS'lib'
p7
(dp8
sS'unicodes'
p9
(tsS'width'
p10
F1042.0028846649152
sS'contours'
p11
(tsS'components'
p12
(tsS'anchors'
p13
(tsss."
LayerCount: 2
Fore
SplineSet
565 192 m 0
 680 192 695 378 695 546 c 0
 695 650 694 731 694 823 c 0
 694 954 681 1088 565 1088 c 0
 494 1088 420 1065 373 1037 c 1
 373 232 l 1
 430 209 499 192 565 192 c 0
629 -18 m 0
 512 -18 432 55 373 116 c 1
 373 0 l 1
 117 0 l 1
 117 1791 l 1
 373 1791 l 1
 373 1153 l 1
 442 1226 507 1298 633 1298 c 0
 946 1298 949 924 949 594 c 2
 949 577 l 2
 949 317 885 -18 629 -18 c 0
EndSplineSet
EndChar

StartChar: backslash
Encoding: 60 92 138
Width: 576
VWidth: 0
Flags: HW
LayerCount: 2
Fore
SplineSet
256 0 m 1
 64 1792 l 1
 320 1792 l 1
 512 0 l 1
 256 0 l 1
EndSplineSet
EndChar

StartChar: bar
Encoding: 92 124 139
Width: 384
VWidth: 0
Flags: HW
LayerCount: 2
Fore
SplineSet
128 -128 m 1
 128 1920 l 1
 320 1920 l 1
 320 -128 l 1
 128 -128 l 1
EndSplineSet
EndChar

StartChar: braceleft
Encoding: 91 123 140
Width: 704
VWidth: 0
Flags: HW
LayerCount: 2
Fore
SplineSet
640 -64 m 1
 281 -64 192 143 192 512 c 0
 192 660 207 768 64 768 c 1
 64 1024 l 1
 210 1024 192 1249 192 1408 c 0
 192 1749 298 1856 640 1856 c 1
 640 1664 l 1
 458 1664 448 1594 448 1408 c 0
 448 1177 406 966 256 896 c 1
 385 841 448 703 448 512 c 0
 448 312 445 128 640 128 c 1
 640 -64 l 1
EndSplineSet
EndChar

StartChar: braceright
Encoding: 93 125 141
Width: 704
VWidth: 0
Flags: HW
LayerCount: 2
Fore
SplineSet
64 -64 m 1
 64 128 l 1
 258 128 256 311 256 512 c 0
 256 702 319 842 448 896 c 1
 298 963 256 1180 256 1408 c 0
 256 1595 248 1664 64 1664 c 1
 64 1856 l 1
 403 1856 512 1748 512 1408 c 0
 512 1249 493 1024 640 1024 c 1
 640 768 l 1
 498 768 512 660 512 512 c 0
 512 142 425 -64 64 -64 c 1
EndSplineSet
EndChar

StartChar: bracketleft
Encoding: 59 91 142
Width: 768
VWidth: 0
Flags: HW
LayerCount: 2
Fore
SplineSet
128 -64 m 1
 128 1856 l 1
 640 1856 l 1
 640 1728 l 1
 384 1728 l 1
 384 64 l 1
 640 64 l 1
 640 -64 l 1
 128 -64 l 1
EndSplineSet
EndChar

StartChar: bracketright
Encoding: 61 93 143
Width: 768
VWidth: 0
Flags: HW
LayerCount: 2
Fore
SplineSet
128 -64 m 1
 128 64 l 1
 384 64 l 1
 384 1728 l 1
 128 1728 l 1
 128 1856 l 1
 640 1856 l 1
 640 -64 l 1
 128 -64 l 1
EndSplineSet
EndChar

StartChar: breve
Encoding: 350 728 144
Width: 768
VWidth: 0
Flags: HW
LayerCount: 2
Fore
SplineSet
384 1408 m 0
 136 1408 64 1540 64 1792 c 1
 256 1792 l 1
 256 1671 270 1600 384 1600 c 0
 497 1600 512 1672 512 1792 c 1
 704 1792 l 1
 704 1539 635 1408 384 1408 c 0
EndSplineSet
EndChar

StartChar: brokenbar
Encoding: 101 166 145
Width: 395
VWidth: 0
Flags: HW
LayerCount: 2
Fore
SplineSet
94 889 m 1
 94 1518 l 1
 297 1518 l 1
 297 889 l 1
 94 889 l 1
94 -14 m 1
 94 614 l 1
 297 614 l 1
 297 -14 l 1
 94 -14 l 1
EndSplineSet
EndChar

StartChar: bullet
Encoding: 388 8226 146
Width: 960
VWidth: 0
Flags: HW
LayerCount: 2
Fore
SplineSet
486 595 m 0
 317 595 221 724 221 891 c 0
 221 1059 317 1187 486 1187 c 0
 655 1187 751 1058 751 891 c 0
 751 723 655 595 486 595 c 0
EndSplineSet
EndChar

StartChar: c
Encoding: 67 99 147
Width: 863
VWidth: 0
Flags: HW
PickledData: "(dp1
S'com.typemytype.robofont.layerData'
p2
(dp3
S'back'
p4
(dp5
S'name'
p6
S'c'
sS'lib'
p7
(dp8
sS'unicodes'
p9
(tsS'width'
p10
F863
sS'contours'
p11
(tsS'components'
p12
(tsS'anchors'
p13
(tsss."
LayerCount: 2
Fore
SplineSet
434 -18 m 0
 115 -18 58 246 51 557 c 0
 49 611 49 670 51 724 c 0
 58 1035 116 1298 434 1298 c 0
 715 1298 811 1136 818 866 c 0
 818 855 818 843 818 832 c 1
 562 832 l 1
 562 844 562 856 562 868 c 0
 559 979 541 1099 434 1099 c 0
 329 1099 307 962 304 823 c 1
 300 691 302 582 304 449 c 1
 308 318 330 192 434 192 c 0
 552 192 561 300 562 417 c 0
 562 427 562 438 562 448 c 1
 818 448 l 1
 818 437 818 426 818 415 c 0
 810 153 708 -18 434 -18 c 0
EndSplineSet
EndChar

StartChar: caron
Encoding: 349 711 149
Width: 768
VWidth: 0
Flags: HW
LayerCount: 2
Fore
SplineSet
256 1408 m 1
 64 1792 l 1
 256 1792 l 1
 384 1536 l 1
 512 1792 l 1
 704 1792 l 1
 512 1408 l 1
 256 1408 l 1
EndSplineSet
EndChar

StartChar: cdotaccent
Encoding: 198 267 153
Width: 901
VWidth: 0
Flags: HW
PickledData: "(dp1
S'com.typemytype.robofont.layerData'
p2
(dp3
S'back'
p4
(dp5
S'name'
p6
S'cdotaccent'
p7
sS'lib'
p8
(dp9
sS'unicodes'
p10
(tsS'width'
p11
I901
sS'contours'
p12
(tsS'components'
p13
(tsS'anchors'
p14
(tsss."
LayerCount: 2
Fore
SplineSet
349 1400 m 1
 349 1656 l 1
 605 1656 l 1
 605 1400 l 1
 349 1400 l 1
EndSplineSet
Refer: 147 99 N 1 0 0 1 0 0 2
EndChar

StartChar: cedilla
Encoding: 116 184 154
Width: 576
VWidth: 0
Flags: HW
LayerCount: 2
Fore
SplineSet
64 -512 m 1
 64 -384 l 1
 95 -384 134 -386 172 -386 c 0
 248 -386 320 -377 320 -320 c 0
 320 -253 181 -212 128 -192 c 1
 128 0 l 1
 256 0 l 1
 256 -128 l 1
 350 -154 512 -205 512 -320 c 0
 512 -500 333 -512 149 -512 c 2
 64 -512 l 1
EndSplineSet
EndChar

StartChar: cent
Encoding: 97 162 155
Width: 1027
VWidth: 0
Flags: HW
LayerCount: 2
Fore
SplineSet
479 206 m 1
 479 1071 l 1
 366 1017 385 811 385 640 c 0
 385 472 360 253 479 206 c 1
479 -128 m 1
 479 -15 l 1
 181 9 129 210 129 532 c 2
 129 733 l 2
 129 1047 191 1266 479 1294 c 1
 479 1408 l 1
 557 1408 l 1
 557 1294 l 1
 802 1266 897 1100 897 831 c 1
 641 832 l 1
 641 944 634 1038 557 1073 c 1
 557 207 l 1
 639 247 641 352 641 473 c 1
 897 473 l 1
 897 461 898 446 898 430 c 0
 898 181 785 12 557 -14 c 1
 557 -128 l 1
 479 -128 l 1
EndSplineSet
EndChar

StartChar: circumflex
Encoding: 348 710 156
Width: 768
VWidth: 0
Flags: HW
LayerCount: 2
Fore
SplineSet
64 1408 m 1
 256 1792 l 1
 512 1792 l 1
 704 1408 l 1
 512 1408 l 1
 384 1664 l 1
 256 1408 l 1
 64 1408 l 1
EndSplineSet
EndChar

StartChar: colon
Encoding: 26 58 157
Width: 439
VWidth: 0
Flags: HW
LayerCount: 2
Fore
SplineSet
128 832 m 1
 128 1088 l 1
 384 1088 l 1
 384 832 l 1
 128 832 l 1
128 256 m 1
 128 512 l 1
 384 512 l 1
 384 256 l 1
 128 256 l 1
EndSplineSet
EndChar

StartChar: comma
Encoding: 12 44 158
Width: 408
VWidth: 0
Flags: HW
LayerCount: 2
Fore
SplineSet
140 -256 m 1
 76 -128 l 1
 169 -128 204 -89 204 0 c 1
 76 0 l 1
 76 256 l 1
 332 256 l 1
 332 160 331 79 329 14 c 0
 324 -148 302 -256 140 -256 c 1
EndSplineSet
EndChar

StartChar: copyright
Encoding: 104 169 159
Width: 1528
VWidth: 0
Flags: HW
LayerCount: 2
Fore
SplineSet
764 -14 m 0
 358 -14 70 295 70 700 c 0
 70 1107 358 1415 764 1415 c 0
 1170 1415 1458 1106 1458 700 c 0
 1458 294 1169 -14 764 -14 c 0
764 133 m 0
 1075 133 1286 384 1286 696 c 0
 1286 1011 1076 1260 764 1260 c 0
 450 1260 242 1010 242 696 c 0
 242 384 454 133 764 133 c 0
768 217 m 0
 491 217 475 446 475 723 c 0
 475 984 512 1180 774 1180 c 0
 980 1180 1055 1043 1055 840 c 1
 872 840 l 1
 872 931 864 1036 776 1036 c 0
 633 1036 655 876 655 721 c 0
 655 576 630 365 768 365 c 0
 867 365 874 478 874 578 c 1
 1053 578 l 1
 1053 562 l 2
 1053 366 969 217 768 217 c 0
EndSplineSet
EndChar

StartChar: currency
Encoding: 99 164 160
Width: 1024
VWidth: 0
Flags: HW
LayerCount: 2
Fore
SplineSet
512 682 m 0
 637 682 704 772 704 896 c 0
 704 1020 637 1110 512 1110 c 0
 386 1110 320 1021 320 897 c 0
 320 773 387 682 512 682 c 0
195 489 m 1
 105 579 l 1
 191 665 l 1
 151 726 128 803 128 897 c 0
 128 990 152 1067 191 1127 c 1
 105 1213 l 1
 195 1303 l 1
 281 1217 l 1
 341 1256 414 1280 512 1280 c 0
 610 1280 683 1256 743 1217 c 1
 829 1303 l 1
 919 1213 l 1
 832 1126 l 1
 871 1066 896 990 896 897 c 0
 896 803 871 726 832 665 c 1
 919 579 l 1
 829 489 l 1
 743 575 l 1
 683 536 610 512 512 512 c 0
 414 512 341 536 281 575 c 1
 195 489 l 1
EndSplineSet
EndChar

StartChar: d
Encoding: 68 100 161
Width: 1050
VWidth: 0
Flags: HW
PickledData: "(dp1
S'com.typemytype.robofont.layerData'
p2
(dp3
S'back'
p4
(dp5
S'name'
p6
S'd'
sS'lib'
p7
(dp8
sS'unicodes'
p9
(tsS'width'
p10
F1050.8179447052687
sS'contours'
p11
(tsS'components'
p12
(tsS'anchors'
p13
(tsss."
LayerCount: 2
Fore
SplineSet
478 192 m 0
 544 192 613 209 670 232 c 1
 670 1037 l 1
 623 1065 549 1088 478 1088 c 0
 373 1088 352 975 349 854 c 0
 347 740 345 633 349 499 c 1
 352 345 374 192 478 192 c 0
414 -18 m 0
 175 -18 104 272 95 521 c 1
 91 600 94 675 95 751 c 0
 102 1032 145 1298 410 1298 c 0
 531 1298 603 1224 670 1153 c 1
 670 1791 l 1
 926 1791 l 1
 926 0 l 1
 670 0 l 1
 670 116 l 1
 611 55 530 -18 414 -18 c 0
EndSplineSet
EndChar

StartChar: daggerdbl
Encoding: 387 8225 162
Width: 850
VWidth: 0
Flags: HW
LayerCount: 2
Fore
SplineSet
300 0 m 1
 300 500 l 1
 100 500 l 1
 100 700 l 1
 300 700 l 1
 300 1050 l 1
 100 1050 l 1
 100 1250 l 1
 300 1250 l 1
 300 1536 l 1
 550 1536 l 1
 550 1250 l 1
 751 1250 l 1
 751 1050 l 1
 550 1050 l 1
 550 700 l 1
 751 700 l 1
 751 500 l 1
 550 500 l 1
 550 0 l 1
 300 0 l 1
EndSplineSet
EndChar

StartChar: dcroat
Encoding: 204 273 164
Width: 1056
VWidth: 0
Flags: HW
LayerCount: 2
Fore
SplineSet
480 192 m 0
 546 192 615 209 672 232 c 1
 672 1037 l 1
 625 1065 551 1088 480 1088 c 0
 330 1088 352 859 352 705 c 0
 352 530 325 192 480 192 c 0
416 -18 m 0
 159 -18 96 318 96 577 c 0
 96 912 92 1298 412 1298 c 0
 533 1298 605 1224 672 1153 c 1
 672 1500 l 1
 412 1500 l 1
 412 1638 l 1
 672 1638 l 1
 672 1791 l 1
 928 1791 l 1
 928 1638 l 1
 1056 1638 l 1
 1056 1500 l 1
 928 1500 l 1
 928 0 l 1
 672 0 l 1
 672 116 l 1
 613 55 532 -18 416 -18 c 0
EndSplineSet
EndChar

StartChar: degree
Encoding: 111 176 165
Width: 1024
VWidth: 0
Flags: HW
LayerCount: 2
Fore
SplineSet
512 1042 m 0
 270 1042 128 1190 128 1427 c 0
 128 1664 272 1810 512 1810 c 0
 753 1810 896 1663 896 1427 c 0
 896 1190 753 1042 512 1042 c 0
512 1212 m 0
 637 1212 704 1302 704 1426 c 0
 704 1550 637 1640 512 1640 c 0
 386 1640 320 1551 320 1427 c 0
 320 1303 387 1212 512 1212 c 0
EndSplineSet
EndChar

StartChar: dieresis
Encoding: 103 168 166
Width: 896
VWidth: 0
Flags: HW
LayerCount: 2
Fore
SplineSet
512 1536 m 1
 512 1792 l 1
 768 1792 l 1
 768 1536 l 1
 512 1536 l 1
128 1536 m 1
 128 1792 l 1
 384 1792 l 1
 384 1536 l 1
 128 1536 l 1
EndSplineSet
EndChar

StartChar: divide
Encoding: 178 247 167
Width: 640
VWidth: 0
Flags: HW
LayerCount: 2
Fore
SplineSet
192 879 m 1
 192 1135 l 1
 448 1135 l 1
 448 879 l 1
 192 879 l 1
0 576 m 1
 0 768 l 1
 640 768 l 1
 640 576 l 1
 0 576 l 1
192 233 m 1
 192 489 l 1
 448 489 l 1
 448 233 l 1
 192 233 l 1
EndSplineSet
EndChar

StartChar: dollar
Encoding: 4 36 168
Width: 1216
VWidth: 0
Flags: HW
LayerCount: 2
Fore
SplineSet
704 198 m 1
 789 217 832 279 832 384 c 0
 832 496 786 566 724 628 c 2
 704 648 l 1
 704 198 l 1
576 1101 m 1
 576 1600 l 1
 452 1600 384 1525 384 1405 c 0
 384 1294 441 1208 512 1152 c 2
 576 1101 l 1
576 -128 m 1
 576 -15 l 1
 288 6 145 222 128 512 c 1
 384 576 l 1
 390 406 435 264 555 208 c 1
 576 200 l 1
 576 755 l 1
 320 960 l 2
 210 1048 127 1187 127 1378 c 0
 127 1644 307 1810 576 1810 c 1
 576 1920 l 1
 704 1920 l 1
 704 1799 l 1
 745 1790 l 1
 954 1733 1070 1586 1088 1344 c 1
 832 1280 l 1
 826 1399 793 1492 724 1549 c 1
 704 1564 l 1
 704 998 l 1
 832 896 l 1
 965 792 1088 628 1088 401 c 0
 1088 153 932 10 704 -15 c 1
 704 -128 l 1
 576 -128 l 1
EndSplineSet
EndChar

StartChar: dotaccent
Encoding: 351 729 169
Width: 384
VWidth: 0
Flags: HW
LayerCount: 2
Fore
SplineSet
64 1446 m 1
 64 1702 l 1
 320 1702 l 1
 320 1446 l 1
 64 1446 l 1
EndSplineSet
EndChar

StartChar: dotlessi
Encoding: 234 305 170
Width: 512
VWidth: 0
Flags: HW
LayerCount: 2
Fore
SplineSet
128 0 m 1
 128 1280 l 1
 384 1280 l 1
 384 0 l 1
 128 0 l 1
EndSplineSet
EndChar

StartChar: e
Encoding: 69 101 171
Width: 933
VWidth: 0
Flags: HW
PickledData: "(dp1
S'com.typemytype.robofont.layerData'
p2
(dp3
S'back'
p4
(dp5
S'name'
p6
S'e'
sS'lib'
p7
(dp8
sS'unicodes'
p9
(tsS'width'
p10
F932
sS'contours'
p11
(tsS'components'
p12
(tsS'anchors'
p13
(tsss."
LayerCount: 2
Fore
SplineSet
476 -18 m 0
 157 -18 101 254 94 578 c 0
 92 633 92 691 94 746 c 0
 102 1057 169 1298 478 1298 c 0
 812 1298 862 1017 862 670 c 2
 862 640 l 1
 350 640 l 1
 350 576 l 2
 350 428 334 192 478 192 c 0
 589 192 603 286 606 394 c 0
 606 412 606 430 606 448 c 1
 860 448 l 1
 860 430 861 413 860 397 c 0
 848 133 738 -18 476 -18 c 0
350 768 m 1
 604 768 l 1
 604 792 605 819 604 845 c 0
 602 964 585 1088 478 1088 c 0
 368 1088 353 958 350 838 c 0
 350 814 350 790 350 768 c 1
EndSplineSet
EndChar

StartChar: eight
Encoding: 24 56 177
Width: 1024
VWidth: 0
Flags: HW
LayerCount: 2
Fore
SplineSet
513 1063 m 0
 653 1063 673 1204 673 1344 c 0
 673 1474 643 1600 513 1600 c 0
 381 1600 351 1476 351 1344 c 0
 351 1204 372 1063 513 1063 c 0
513 192 m 0
 685 192 704 342 704 511 c 0
 704 667 671 818 513 818 c 0
 354 818 320 668 320 511 c 0
 320 340 340 192 513 192 c 0
513 -18 m 0
 186 -18 64 185 64 511 c 0
 64 736 123 860 258 946 c 1
 145 1031 90 1150 90 1344 c 0
 90 1632 225 1810 513 1810 c 0
 800 1810 934 1631 934 1344 c 0
 934 1150 880 1031 767 946 c 1
 899 859 960 735 960 511 c 0
 960 185 839 -18 513 -18 c 0
EndSplineSet
EndChar

StartChar: emdash
Encoding: 379 8212 179
Width: 384
VWidth: 0
Flags: HW
LayerCount: 2
Fore
SplineSet
0 448 m 1
 0 640 l 1
 384 640 l 1
 384 448 l 1
 0 448 l 1
EndSplineSet
EndChar

StartChar: endash
Encoding: 378 8211 180
Width: 384
VWidth: 0
Flags: HW
LayerCount: 2
Fore
SplineSet
0 448 m 1
 0 640 l 1
 384 640 l 1
 384 448 l 1
 0 448 l 1
EndSplineSet
EndChar

StartChar: equal
Encoding: 29 61 182
Width: 704
VWidth: 0
Flags: HW
LayerCount: 2
Fore
SplineSet
64 576 m 1
 64 768 l 1
 640 768 l 1
 640 576 l 1
 64 576 l 1
64 255 m 1
 64 447 l 1
 640 447 l 1
 640 255 l 1
 64 255 l 1
EndSplineSet
EndChar

StartChar: eth
Encoding: 171 240 183
Width: 1152
VWidth: 0
Flags: HW
LayerCount: 2
Fore
SplineSet
576 192 m 0
 729 192 768 356 768 512 c 2
 768 978 l 1
 729 1035 673 1088 576 1088 c 0
 448 1088 384 960 384 704 c 0
 384 492 382 192 576 192 c 0
576 -18 m 0
 212 -18 129 274 129 640 c 0
 129 954 207 1298 512 1298 c 0
 632 1298 739 1237 768 1152 c 1
 768 1279 749 1373 699 1446 c 1
 256 1344 l 1
 256 1472 l 1
 576 1546 l 1
 473 1592 346 1600 192 1600 c 1
 192 1810 l 1
 488 1810 724 1769 860 1611 c 1
 1088 1664 l 1
 1088 1536 l 1
 932 1500 l 1
 1001 1358 1024 1182 1024 960 c 2
 1024 576 l 2
 1024 253 890 -18 576 -18 c 0
EndSplineSet
EndChar

StartChar: exclam
Encoding: 1 33 184
Width: 375
VWidth: 0
Flags: HW
LayerCount: 2
Fore
SplineSet
128 384 m 1
 64 1792 l 1
 320 1792 l 1
 274 384 l 1
 128 384 l 1
64 0 m 1
 64 256 l 1
 320 256 l 1
 320 0 l 1
 64 0 l 1
EndSplineSet
EndChar

StartChar: exclamdown
Encoding: 96 161 185
Width: 384
VWidth: 0
Flags: HW
LayerCount: 2
Fore
SplineSet
64 1280 m 1
 64 1536 l 1
 320 1536 l 1
 320 1280 l 1
 64 1280 l 1
64 0 m 1
 128 1152 l 1
 256 1152 l 1
 256 0 l 1
 64 0 l 1
EndSplineSet
EndChar

StartChar: f
Encoding: 70 102 186
Width: 634
VWidth: 0
Flags: HW
PickledData: "(dp1
S'com.typemytype.robofont.layerData'
p2
(dp3
S'back'
p4
(dp5
S'name'
p6
S'f'
sS'lib'
p7
(dp8
sS'unicodes'
p9
(tsS'width'
p10
I576
sS'contours'
p11
(tsS'components'
p12
(tsS'anchors'
p13
(tsss."
LayerCount: 2
Fore
SplineSet
184 0 m 1
 184 1088 l 5
 56 1088 l 5
 56 1280 l 5
 184 1280 l 5
 184 1329 l 2
 184 1577 225 1728 474 1728 c 0
 536 1728 568 1724 632 1716 c 1
 632 1526 l 1
 606 1528 571 1536 546 1536 c 0
 454 1536 440 1468 440 1376 c 2
 440 1280 l 5
 632 1280 l 5
 632 1088 l 5
 440 1088 l 5
 440 0 l 1
 184 0 l 1
EndSplineSet
EndChar

StartChar: five
Encoding: 21 53 187
Width: 1050
VWidth: 0
Flags: HW
LayerCount: 2
Fore
SplineSet
535 -18 m 0
 202 -18 92 183 92 512 c 1
 348 512 l 1
 348 472 l 2
 348 321 369 186 521 186 c 0
 744 186 732 430 732 658 c 0
 732 835 719 974 541 974 c 0
 443 974 377 896 350 826 c 1
 132 826 l 1
 132 1792 l 1
 924 1792 l 1
 924 1536 l 1
 364 1536 l 1
 348 1102 l 1
 414 1141 495 1166 604 1166 c 0
 900 1166 988 937 988 640 c 0
 988 278 899 -18 535 -18 c 0
EndSplineSet
EndChar

StartChar: foundryicon
Encoding: 405 -1 188
Width: 1362
VWidth: 0
Flags: HW
LayerCount: 2
Fore
SplineSet
221 277 m 1
 389 819 l 1
 -70 1157 l 1
 502 1168 l 1
 680 1710 l 1
 868 1168 l 1
 1440 1168 l 1
 979 819 l 1
 1149 277 l 1
 680 604 l 1
 221 277 l 1
EndSplineSet
EndChar

StartChar: four
Encoding: 20 52 189
Width: 1087
VWidth: 0
Flags: HW
LayerCount: 2
Fore
SplineSet
339 702 m 1
 595 702 l 1
 595 1472 l 1
 339 702 l 1
595 0 m 1
 595 460 l 1
 83 460 l 1
 83 745 l 1
 531 1793 l 1
 851 1793 l 1
 851 702 l 1
 1049 702 l 1
 1049 460 l 1
 851 460 l 1
 851 0 l 1
 595 0 l 1
EndSplineSet
EndChar

StartChar: fraction
Encoding: 391 8260 190
Width: 537
VWidth: 0
Flags: HW
LayerCount: 2
Fore
SplineSet
18 383 m 1
 301 1901 l 1
 520 1901 l 1
 238 383 l 1
 18 383 l 1
EndSplineSet
EndChar

StartChar: g
Encoding: 71 103 191
Width: 925
VWidth: 0
Flags: HW
PickledData: "(dp1
S'com.typemytype.robofont.layerData'
p2
(dp3
S'back'
p4
(dp5
S'name'
p6
S'g'
sS'lib'
p7
(dp8
sS'unicodes'
p9
(tsS'width'
p10
F868
sS'contours'
p11
((dp12
S'points'
p13
((dp14
S'segmentType'
p15
S'curve'
p16
sS'x'
F498
sS'smooth'
p17
I01
sS'y'
F-383
s(dp18
S'y'
F-383
sS'x'
F733
sg17
I00
s(dp19
S'y'
F-303
sS'x'
F946
sg17
I00
s(dp20
g15
S'curve'
p21
sS'x'
F946
sg17
I01
sS'y'
F-64
s(dp22
S'y'
F131
sS'x'
F946
sg17
I00
s(dp23
S'y'
F183
sS'x'
F780
sg17
I00
s(dp24
g15
S'curve'
p25
sS'x'
F608
sg17
I01
sS'y'
F206
s(dp26
S'y'
F218
sS'x'
F517
sg17
I00
s(dp27
S'y'
F208
sS'x'
F270
sg17
I00
s(dp28
g15
S'curve'
p29
sS'x'
F270
sg17
I01
sS'y'
F301
s(dp30
S'y'
F332
sS'x'
F270
sg17
I00
s(dp31
S'y'
F361
sS'x'
F293
sg17
I00
s(dp32
g15
S'curve'
p33
sS'x'
F305
sg17
I00
sS'y'
F383
s(dp34
S'y'
F383
sS'x'
F305
sg17
I00
s(dp35
S'y'
F368
sS'x'
F406
sg17
I00
s(dp36
g15
S'curve'
p37
sS'x'
F434
sg17
I01
sS'y'
F368
s(dp38
S'y'
F368
sS'x'
F695
sg17
I00
s(dp39
S'y'
F570
sS'x'
F818
sg17
I00
s(dp40
g15
S'curve'
p41
sS'x'
F818
sg17
I01
sS'y'
F832
s(dp42
S'y'
F907
sS'x'
F818
sg17
I00
s(dp43
S'y'
F974
sS'x'
F803
sg17
I00
s(dp44
g15
S'curve'
p45
sS'x'
F786
sg17
I00
sS'y'
F1024
s(dp46
S'y'
F1060
sS'x'
F822
sg17
I00
s(dp47
S'y'
F1088
sS'x'
F873
sg17
I00
s(dp48
g15
S'curve'
p49
sS'x'
F946
sg17
I00
sS'y'
F1088
s(dp50
g15
S'line'
p51
sS'x'
F946
sg17
I00
sS'y'
F1297
s(dp52
S'y'
F1297
sS'x'
F939
sg17
I00
s(dp53
S'y'
F1298
sS'x'
F932
sg17
I00
s(dp54
g15
S'curve'
p55
sS'x'
F926
sg17
I01
sS'y'
F1297
s(dp56
S'y'
F1290
sS'x'
F817
sg17
I00
s(dp57
S'y'
F1221
sS'x'
F750
sg17
I00
s(dp58
g15
S'curve'
p59
sS'x'
F710
sg17
I00
sS'y'
F1147
s(dp60
S'y'
F1238
sS'x'
F651
sg17
I00
s(dp61
S'y'
F1298
sS'x'
F581
sg17
I00
s(dp62
g15
S'curve'
p63
sS'x'
F434
sg17
I01
sS'y'
F1298
s(dp64
S'y'
F1298
sS'x'
F180
sg17
I00
s(dp65
S'y'
F1094
sS'x'
F50
sg17
I00
s(dp66
g15
S'curve'
p67
sS'x'
F50
sg17
I01
sS'y'
F832
s(dp68
S'y'
F672
sS'x'
F50
sg17
I00
s(dp69
S'y'
F542
sS'x'
F99
sg17
I00
s(dp70
g15
S'curve'
p71
sS'x'
F178
sg17
I00
sS'y'
F448
s(dp72
S'y'
F391
sS'x'
F133
sg17
I00
s(dp73
S'y'
F297
sS'x'
F50
sg17
I00
s(dp74
g15
S'curve'
p75
sS'x'
F50
sg17
I01
sS'y'
F201
s(dp76
S'y'
F141
sS'x'
F50
sg17
I00
s(dp77
S'y'
F105
sS'x'
F119
sg17
I00
s(dp78
g15
S'curve'
p79
sS'x'
F178
sg17
I00
sS'y'
F89
s(dp80
S'y'
F39
sS'x'
F78
sg17
I00
s(dp81
S'y'
F-51
sS'x'
F-14
sg17
I00
s(dp82
g15
S'curve'
p83
sS'x'
F-14
sg17
I01
sS'y'
F-195
s(dp84
S'y'
F-381
sS'x'
F-14
sg17
I00
s(dp85
S'y'
F-383
sS'x'
F307
sg17
I00
stp86
s(dp87
g13
((dp88
g15
S'curve'
p89
sS'x'
F434
sg17
I01
sS'y'
F560
s(dp90
S'y'
F560
sS'x'
F304
sg17
I00
s(dp91
S'y'
F701
sS'x'
F274
sg17
I00
s(dp92
g15
S'curve'
p93
sS'x'
F274
sg17
I01
sS'y'
F832
s(dp94
S'y'
F964
sS'x'
F274
sg17
I00
s(dp95
S'y'
F1120
sS'x'
F302
sg17
I00
s(dp96
g15
S'curve'
p97
sS'x'
F434
sg17
I01
sS'y'
F1120
s(dp98
S'y'
F1120
sS'x'
F564
sg17
I00
s(dp99
S'y'
F964
sS'x'
F594
sg17
I00
s(dp100
g15
S'curve'
p101
sS'x'
F594
sg17
I01
sS'y'
F832
s(dp102
S'y'
F701
sS'x'
F594
sg17
I00
s(dp103
S'y'
F560
sS'x'
F565
sg17
I00
stp104
s(dp105
g13
((dp106
g15
S'curve'
p107
sS'x'
F498
sg17
I01
sS'y'
F-194
s(dp108
S'y'
F-194
sS'x'
F419
sg17
I00
s(dp109
S'y'
F-211
sS'x'
F212
sg17
I00
s(dp110
g15
S'curve'
p111
sS'x'
F212
sg17
I01
sS'y'
F-135
s(dp112
S'y'
F-54
sS'x'
F212
sg17
I00
s(dp113
S'y'
F22
sS'x'
F258
sg17
I00
s(dp114
g15
S'curve'
p115
sS'x'
F306
sg17
I00
sS'y'
F57
s(dp116
g15
S'line'
p117
sS'x'
F517
sg17
I01
sS'y'
F32
s(dp118
S'y'
F13.6442554179
sS'x'
F669.96453818400005
sg17
I00
s(dp119
S'y'
F-38.830584401300001
sS'x'
F722
sg17
I00
s(dp120
g15
S'curve'
p121
sS'x'
F722
sg17
I01
sS'y'
F-99
s(dp122
S'y'
F-188
sS'x'
F722
sg17
I00
s(dp123
S'y'
F-194
sS'x'
F589
sg17
I00
stp124
stp125
sS'components'
p126
(tsS'anchors'
p127
((dp128
S'y'
F1280
sS'x'
F452
sg6
S'top'
p129
stp130
sss."
LayerCount: 2
Fore
SplineSet
458 560 m 0
 589 560 618 701 618 832 c 0
 618 964 588 1120 458 1120 c 0
 326 1120 298 964 298 832 c 0
 298 701 328 560 458 560 c 0
522 -194 m 0
 613 -194 746 -188 746 -99 c 0
 746 -39 694 14 541 32 c 2
 330 57 l 1
 282 22 236 -54 236 -135 c 0
 236 -211 443 -194 522 -194 c 0
522 -383 m 0
 331 -383 10 -381 10 -195 c 0
 10 -51 102 39 202 89 c 1
 143 105 74 141 74 201 c 0
 74 297 157 391 202 448 c 1
 123 542 74 672 74 832 c 0
 74 1094 204 1298 458 1298 c 0
 605 1298 675 1238 734 1147 c 1
 774 1221 841 1290 950 1297 c 0
 956 1298 963 1297 970 1297 c 1
 970 1088 l 1
 897 1088 833 1091 797 1055 c 1
 821 1004 842 907 842 832 c 0
 842 570 719 368 458 368 c 0
 430 368 329 383 329 383 c 1
 317 361 294 332 294 301 c 0
 294 208 541 218 632 206 c 0
 804 183 970 131 970 -64 c 0
 970 -303 757 -383 522 -383 c 0
EndSplineSet
EndChar

StartChar: gcommaaccent
Encoding: 220 291 194
Width: 973
VWidth: 0
Flags: HW
LayerCount: 2
Fore
SplineSet
481 560 m 0
 612 560 641 701 641 832 c 0
 641 964 611 1120 481 1120 c 0
 349 1120 321 964 321 832 c 0
 321 701 351 560 481 560 c 0
371 1377 m 1
 371 1618 330 1889 563 1889 c 1
 627 1761 l 1
 534 1761 499 1722 499 1633 c 1
 627 1633 l 1
 627 1377 l 1
 371 1377 l 1
545 -194 m 0
 636 -194 769 -188 769 -99 c 0
 769 -88 768 -77 765 -66 c 1
 756 -16 689 17 564 32 c 2
 353 57 l 1
 305 22 259 -54 259 -135 c 0
 259 -211 466 -194 545 -194 c 0
545 -383 m 0
 354 -383 33 -381 33 -195 c 0
 33 -51 125 39 225 89 c 1
 166 105 97 141 97 201 c 0
 97 297 180 391 225 448 c 1
 146 542 97 672 97 832 c 0
 97 1094 227 1298 481 1298 c 0
 628 1298 698 1238 757 1147 c 1
 799 1225 872 1298 993 1298 c 1
 993 1088 l 1
 920 1088 869 1060 833 1024 c 1
 850 974 865 907 865 832 c 0
 865 570 742 368 481 368 c 0
 453 368 425 371 400 375 c 1
 352 375 l 1
 340 353 317 332 317 301 c 0
 317 131 993 295 993 -64 c 0
 993 -303 780 -383 545 -383 c 0
EndSplineSet
EndChar

StartChar: gdotaccent
Encoding: 218 289 195
Width: 968
VWidth: 0
Flags: HW
PickledData: "(dp1
S'com.typemytype.robofont.layerData'
p2
(dp3
S'back'
p4
(dp5
S'name'
p6
S'gdotaccent'
p7
sS'lib'
p8
(dp9
sS'unicodes'
p10
(tsS'width'
p11
I968
sS'contours'
p12
(tsS'components'
p13
(tsS'anchors'
p14
(tsss."
LayerCount: 2
Fore
SplineSet
370 1400 m 1
 370 1656 l 1
 626 1656 l 1
 626 1400 l 1
 370 1400 l 1
EndSplineSet
Refer: 191 103 N 1 0 0 1 0 0 2
EndChar

StartChar: germandbls
Encoding: 154 223 196
Width: 1152
VWidth: 0
Flags: HW
LayerCount: 2
Fore
SplineSet
512 -18 m 1
 512 192 l 1
 725 192 768 296 768 512 c 0
 768 694 686 812 512 812 c 1
 512 1024 l 1
 667 1024 711 1186 711 1344 c 0
 711 1488 687 1600 544 1600 c 0
 409 1600 384 1496 384 1359 c 2
 384 0 l 1
 128 0 l 1
 128 1354 l 2
 128 1619 254 1810 512 1810 c 0
 814 1810 960 1641 960 1344 c 0
 960 1134 884 1018 741 939 c 1
 916 891 1024 736 1024 512 c 0
 1024 162 865 -18 512 -18 c 1
EndSplineSet
EndChar

StartChar: grave
Encoding: 64 96 197
Width: 640
VWidth: 0
Flags: HW
LayerCount: 2
Fore
SplineSet
384 1408 m 1
 128 1792 l 1
 384 1792 l 1
 512 1408 l 1
 384 1408 l 1
EndSplineSet
EndChar

StartChar: greater
Encoding: 30 62 198
Width: 832
VWidth: 0
Flags: HW
LayerCount: 2
Fore
SplineSet
128 64 m 1
 128 320 l 1
 576 641 l 1
 128 960 l 1
 128 1216 l 1
 768 768 l 1
 768 512 l 1
 128 64 l 1
EndSplineSet
EndChar

StartChar: guillemotleft
Encoding: 106 171 199
Width: 1024
VWidth: 0
Flags: HW
LayerCount: 2
Fore
SplineSet
960 64 m 1
 512 576 l 1
 512 704 l 1
 960 1216 l 1
 960 896 l 1
 704 641 l 1
 960 384 l 1
 960 64 l 1
512 64 m 1
 64 576 l 1
 64 704 l 1
 512 1216 l 1
 512 896 l 1
 256 641 l 1
 512 384 l 1
 512 64 l 1
EndSplineSet
EndChar

StartChar: guillemotright
Encoding: 118 187 200
Width: 1024
VWidth: 0
Flags: HW
LayerCount: 2
Fore
SplineSet
512 64 m 1
 512 384 l 1
 768 641 l 1
 512 896 l 1
 512 1216 l 1
 960 704 l 1
 960 576 l 1
 512 64 l 1
64 64 m 1
 64 384 l 1
 320 641 l 1
 64 896 l 1
 64 1216 l 1
 512 704 l 1
 512 576 l 1
 64 64 l 1
EndSplineSet
EndChar

StartChar: guilsinglleft
Encoding: 389 8249 201
Width: 582
VWidth: 0
Flags: HW
LayerCount: 2
Fore
SplineSet
512 64 m 1
 64 576 l 1
 64 704 l 1
 512 1216 l 1
 512 896 l 1
 256 641 l 1
 512 384 l 1
 512 64 l 1
EndSplineSet
EndChar

StartChar: guilsinglright
Encoding: 390 8250 202
Width: 577
VWidth: 0
Flags: HW
LayerCount: 2
Fore
SplineSet
64 64 m 1
 64 384 l 1
 320 641 l 1
 64 896 l 1
 64 1216 l 1
 512 704 l 1
 512 576 l 1
 64 64 l 1
EndSplineSet
EndChar

StartChar: h
Encoding: 72 104 203
Width: 992
VWidth: 0
Flags: HW
LayerCount: 2
Fore
SplineSet
117 0 m 1
 117 1792 l 1
 373 1792 l 1
 373 1142 l 1
 463 1224 548 1298 701 1298 c 0
 814 1298 885 1203 885 1091 c 2
 885 0 l 1
 629 0 l 1
 629 960 l 2
 629 1037 620 1088 541 1088 c 0
 469 1088 415 1048 373 1013 c 1
 373 0 l 1
 117 0 l 1
EndSplineSet
EndChar

StartChar: hbar
Encoding: 224 295 204
Width: 1024
VWidth: 0
Flags: HW
LayerCount: 2
Fore
SplineSet
128 0 m 1
 128 1450 l 1
 -1 1450 l 1
 -1 1602 l 1
 128 1602 l 1
 128 1792 l 1
 384 1792 l 1
 384 1602 l 1
 551 1602 l 1
 551 1450 l 1
 384 1450 l 1
 384 1142 l 1
 474 1224 559 1298 712 1298 c 0
 825 1298 896 1203 896 1091 c 2
 896 0 l 1
 640 0 l 1
 640 960 l 2
 640 1037 631 1088 552 1088 c 0
 480 1088 426 1048 384 1013 c 1
 384 0 l 1
 128 0 l 1
EndSplineSet
EndChar

StartChar: hungarumlaut
Encoding: 355 733 206
Width: 640
VWidth: 0
Flags: HW
LayerCount: 2
Fore
SplineSet
512 1408 m 1
 640 1792 l 1
 896 1792 l 1
 640 1408 l 1
 512 1408 l 1
218 1408 m 1
 306 1792 l 1
 512 1792 l 1
 346 1408 l 1
 218 1408 l 1
EndSplineSet
EndChar

StartChar: hyphen
Encoding: 13 45 207
Width: 384
VWidth: 0
Flags: HW
LayerCount: 2
Fore
SplineSet
0 448 m 1
 0 640 l 1
 384 640 l 1
 384 448 l 1
 0 448 l 1
EndSplineSet
EndChar

StartChar: i
Encoding: 73 105 208
Width: 512
VWidth: 0
Flags: HW
LayerCount: 2
Fore
SplineSet
128 1472 m 1
 128 1728 l 1
 384 1728 l 1
 384 1472 l 1
 128 1472 l 1
128 0 m 1
 128 1280 l 1
 384 1280 l 1
 384 0 l 1
 128 0 l 1
EndSplineSet
EndChar

StartChar: integral
Encoding: 395 8747 216
Width: 704
VWidth: 0
Flags: HW
LayerCount: 2
Fore
SplineSet
158 -256 m 0
 96 -256 64 -252 0 -244 c 1
 0 -54 l 1
 24 -58 62 -64 86 -64 c 0
 178 -64 192 4 192 96 c 2
 192 1344 l 2
 192 1586 236 1728 482 1728 c 0
 544 1728 576 1724 640 1716 c 1
 640 1526 l 1
 614 1528 579 1536 554 1536 c 0
 462 1536 448 1468 448 1376 c 2
 448 128 l 2
 448 -116 405 -256 158 -256 c 0
EndSplineSet
EndChar

StartChar: j
Encoding: 74 106 219
Width: 507
VWidth: 0
Flags: HW
LayerCount: 2
Fore
SplineSet
150 1472 m 1
 150 1728 l 1
 406 1728 l 1
 406 1472 l 1
 150 1472 l 1
86 -320 m 0
 42 -320 -8 -316 -42 -303 c 1
 -42 -121 l 1
 -27 -124 4 -128 22 -128 c 0
 115 -128 150 -68 150 21 c 2
 150 1280 l 1
 406 1280 l 1
 406 -7 l 2
 406 -206 283 -320 86 -320 c 0
EndSplineSet
EndChar

StartChar: k
Encoding: 75 107 221
Width: 961
VWidth: 0
Flags: HW
PickledData: "(dp1
S'com.typemytype.robofont.layerData'
p2
(dp3
S'back'
p4
(dp5
S'name'
p6
S'k'
sS'lib'
p7
(dp8
sS'unicodes'
p9
(tsS'width'
p10
F892
sS'contours'
p11
(tsS'components'
p12
(tsS'anchors'
p13
(tsss."
LayerCount: 2
Fore
SplineSet
117 0 m 1
 117 1792 l 1
 373 1792 l 1
 373 807 l 1
 693 1280 l 1
 949 1280 l 1
 662 833 l 1
 949 0 l 1
 693 0 l 1
 501 619 l 1
 373 448 l 1
 373 0 l 1
 117 0 l 1
EndSplineSet
EndChar

StartChar: kgreenlandic
Encoding: 241 312 223
Width: 960
VWidth: 0
Flags: HW
LayerCount: 2
Fore
SplineSet
128 0 m 1
 128 1281 l 1
 384 1281 l 1
 384 737 l 1
 704 1280 l 1
 960 1280 l 1
 673 793 l 1
 960 0 l 1
 704 0 l 1
 502 619 l 1
 384 438 l 1
 384 0 l 1
 128 0 l 1
EndSplineSet
EndChar

StartChar: l
Encoding: 76 108 224
Width: 485
VWidth: 0
Flags: HW
PickledData: "(dp1
S'com.typemytype.robofont.layerData'
p2
(dp3
S'back'
p4
(dp5
S'name'
p6
S'l'
sS'lib'
p7
(dp8
sS'unicodes'
p9
(tsS'width'
p10
I485
sS'contours'
p11
(tsS'components'
p12
(tsS'anchors'
p13
(tsss."
LayerCount: 2
Fore
SplineSet
118 0 m 1
 118 1792 l 1
 374 1792 l 1
 374 0 l 1
 118 0 l 1
EndSplineSet
EndChar

StartChar: less
Encoding: 28 60 229
Width: 832
VWidth: 0
Flags: HW
LayerCount: 2
Fore
SplineSet
704 64 m 1
 64 512 l 1
 64 768 l 1
 704 1216 l 1
 704 960 l 1
 256 641 l 1
 704 320 l 1
 704 64 l 1
EndSplineSet
EndChar

StartChar: logicalnot
Encoding: 107 172 230
Width: 768
VWidth: 0
Flags: HW
LayerCount: 2
Fore
SplineSet
512 256 m 1
 512 448 l 1
 128 448 l 1
 128 640 l 1
 640 640 l 1
 640 256 l 1
 512 256 l 1
EndSplineSet
EndChar

StartChar: lslash
Encoding: 251 322 231
Width: 519
VWidth: 0
Flags: HW
LayerCount: 2
Fore
SplineSet
142 0 m 1
 142 1160 l 1
 12 1100 l 1
 12 1292 l 1
 142 1352 l 1
 142 1792 l 1
 398 1792 l 1
 398 1469 l 1
 556 1542 l 1
 556 1347 l 1
 398 1277 l 1
 398 0 l 1
 142 0 l 1
EndSplineSet
EndChar

StartChar: m
Encoding: 77 109 232
Width: 1504
VWidth: 0
Flags: HW
LayerCount: 2
Fore
SplineSet
117 0 m 1
 117 1280 l 1
 373 1280 l 1
 373 1135 l 1
 442 1217 541 1298 692 1298 c 0
 819 1298 866 1241 885 1129 c 1
 960 1227 1046 1298 1205 1298 c 0
 1402 1298 1397 1128 1397 931 c 2
 1397 0 l 1
 1141 0 l 1
 1141 934 l 2
 1141 1005 1147 1088 1077 1088 c 0
 993 1088 932 1040 885 1002 c 1
 885 0 l 1
 629 0 l 1
 629 929 l 2
 629 1002 636 1088 565 1088 c 0
 483 1088 419 1045 373 1007 c 1
 373 0 l 1
 117 0 l 1
EndSplineSet
EndChar

StartChar: macron
Encoding: 110 175 233
Width: 640
VWidth: 0
Flags: HW
LayerCount: 2
Fore
SplineSet
123 1407 m 1
 123 1559 l 1
 557 1559 l 1
 557 1407 l 1
 123 1407 l 1
EndSplineSet
EndChar

StartChar: minus
Encoding: 400 8722 234
Width: 768
VWidth: 0
Flags: HW
LayerCount: 2
Fore
SplineSet
0 548 m 1
 0 699 l 1
 750 699 l 1
 750 548 l 1
 0 548 l 1
EndSplineSet
EndChar

StartChar: multiply
Encoding: 146 215 235
Width: 768
VWidth: 0
Flags: HW
LayerCount: 2
Fore
SplineSet
192 320 m 1
 64 448 l 1
 256 640 l 1
 64 832 l 1
 192 960 l 1
 384 768 l 1
 576 960 l 1
 704 832 l 1
 512 640 l 1
 704 448 l 1
 576 320 l 1
 384 512 l 1
 192 320 l 1
EndSplineSet
EndChar

StartChar: n
Encoding: 78 110 236
Width: 992
VWidth: 0
Flags: HW
LayerCount: 2
Fore
SplineSet
117 0 m 1
 117 1280 l 1
 373 1280 l 1
 373 1142 l 1
 463 1224 548 1298 701 1298 c 0
 814 1298 885 1203 885 1091 c 2
 885 0 l 1
 629 0 l 1
 629 960 l 2
 629 1041 616 1088 533 1088 c 0
 461 1088 415 1048 373 1013 c 1
 373 0 l 1
 117 0 l 1
EndSplineSet
EndChar

StartChar: nine
Encoding: 25 57 240
Width: 1083
VWidth: 0
Flags: HW
LayerCount: 2
Fore
SplineSet
540 896 m 0
 639 896 697 960 732 1024 c 1
 732 1280 l 2
 732 1437 692 1600 540 1600 c 0
 387 1600 348 1436 348 1280 c 0
 348 1088 348 896 540 896 c 0
540 -18 m 0
 250 -18 92 156 92 448 c 1
 348 448 l 1
 348 291 386 192 540 192 c 0
 668 192 732 320 732 576 c 2
 732 832 l 1
 686 755 603 704 476 704 c 0
 179 704 92 922 92 1216 c 0
 92 1541 216 1810 540 1810 c 0
 854 1810 988 1538 988 1216 c 2
 988 640 l 2
 988 289 887 -18 540 -18 c 0
EndSplineSet
EndChar

StartChar: numbersign
Encoding: 3 35 242
Width: 1088
VWidth: 0
Flags: HW
LayerCount: 2
Fore
SplineSet
437 832 m 1
 630 832 l 1
 657 1024 l 1
 465 1024 l 1
 437 832 l 1
64 0 m 1
 154 640 l 1
 64 640 l 1
 64 832 l 1
 181 832 l 1
 209 1024 l 1
 64 1024 l 1
 64 1216 l 1
 236 1216 l 1
 318 1792 l 1
 574 1792 l 1
 492 1216 l 1
 684 1216 l 1
 766 1792 l 1
 1022 1792 l 1
 940 1216 l 1
 1024 1216 l 1
 1024 1024 l 1
 913 1024 l 1
 885 832 l 1
 1024 832 l 1
 1024 640 l 1
 858 640 l 1
 768 0 l 1
 512 0 l 1
 602 640 l 1
 410 640 l 1
 320 0 l 1
 64 0 l 1
EndSplineSet
EndChar

StartChar: o
Encoding: 79 111 243
Width: 954
VWidth: 0
Flags: HW
PickledData: "(dp1
S'com.typemytype.robofont.layerData'
p2
(dp3
S'back'
p4
(dp5
S'name'
p6
S'o'
sS'lib'
p7
(dp8
sS'unicodes'
p9
(tsS'width'
p10
I954
sS'contours'
p11
(tsS'components'
p12
(tsS'anchors'
p13
(tsss."
LayerCount: 2
Fore
SplineSet
477 -18 m 0
 189 -18 93 164 93 448 c 2
 93 832 l 2
 93 1116 189 1298 477 1298 c 0
 765 1298 861 1116 861 832 c 2
 861 448 l 2
 861 164 765 -18 477 -18 c 0
477 192 m 0
 605 192 605 320 605 448 c 2
 605 832 l 2
 605 960 605 1088 477 1088 c 0
 349 1088 349 960 349 832 c 2
 349 448 l 2
 349 320 349 192 477 192 c 0
EndSplineSet
EndChar

StartChar: oe
Encoding: 265 339 248
Width: 1536
VWidth: 0
Flags: HW
LayerCount: 2
Fore
SplineSet
896 768 m 1
 1152 768 l 1
 1152 902 1156 1088 1025 1088 c 0
 893 1088 896 900 896 768 c 1
512 192 m 0
 640 192 640 320 640 448 c 2
 640 832 l 2
 640 960 640 1088 512 1088 c 0
 384 1088 384 960 384 832 c 2
 384 448 l 2
 384 320 384 192 512 192 c 0
512 -18 m 0
 224 -18 128 164 128 448 c 2
 128 832 l 2
 128 1116 224 1298 512 1298 c 0
 644 1298 722 1236 768 1152 c 1
 811 1237 894 1298 1025 1298 c 0
 1358 1298 1408 1016 1408 670 c 2
 1408 640 l 1
 896 640 l 1
 896 576 l 2
 896 428 880 192 1024 192 c 0
 1154 192 1152 318 1152 448 c 1
 1408 448 l 1
 1408 153 1303 -18 1024 -18 c 0
 892 -18 812 43 768 128 c 1
 724 43 644 -18 512 -18 c 0
EndSplineSet
EndChar

StartChar: ogonek
Encoding: 353 731 249
Width: 537
VWidth: 0
Flags: HW
LayerCount: 2
Fore
SplineSet
357 -513 m 2
 122 -513 -46 -507 -46 -321 c 0
 -46 -170 93 -25 210 9 c 1
 338 9 l 1
 277 -70 146 -203 146 -317 c 0
 146 -382 224 -391 290 -391 c 0
 326 -391 372 -385 402 -385 c 1
 402 -513 l 1
 357 -513 l 2
EndSplineSet
EndChar

StartChar: one
Encoding: 17 49 253
Width: 640
VWidth: 0
Flags: HW
LayerCount: 2
Fore
SplineSet
256 0 m 1
 256 1408 l 1
 64 1408 l 1
 64 1600 l 1
 170 1638 270 1695 320 1792 c 1
 512 1792 l 1
 512 0 l 1
 256 0 l 1
EndSplineSet
EndChar

StartChar: onehalf
Encoding: 120 189 254
Width: 1713
VWidth: 0
Flags: HW
LayerCount: 2
Fore
SplineSet
1130 3 m 1
 1130 131 l 1
 1322 387 l 2
 1376 458 1450 534 1450 643 c 0
 1450 707 1450 771 1386 771 c 0
 1322 771 1322 707 1322 643 c 1
 1130 643 l 1
 1130 804 1221 899 1386 899 c 0
 1551 899 1642 804 1642 643 c 0
 1642 439 1425 268 1322 131 c 1
 1642 131 l 1
 1642 3 l 1
 1130 3 l 1
434 0 m 1
 1009 1792 l 1
 1266 1792 l 1
 690 0 l 1
 434 0 l 1
194 744 m 1
 194 1320 l 1
 66 1320 l 1
 66 1448 l 1
 169 1499 255 1557 322 1640 c 1
 386 1640 l 1
 386 744 l 1
 194 744 l 1
EndSplineSet
EndChar

StartChar: onequarter
Encoding: 119 188 255
Width: 1687
VWidth: 0
Flags: HW
LayerCount: 2
Fore
SplineSet
1173 383 m 1
 1301 383 l 1
 1301 639 l 1
 1173 383 l 1
1301 -1 m 1
 1301 255 l 1
 981 255 l 1
 981 383 l 1
 1321 959 l 1
 1493 959 l 1
 1493 383 l 1
 1621 383 l 1
 1621 255 l 1
 1493 255 l 1
 1493 -1 l 1
 1301 -1 l 1
409 0 m 1
 984 1792 l 1
 1241 1792 l 1
 665 0 l 1
 409 0 l 1
197 744 m 1
 197 1320 l 1
 69 1320 l 1
 69 1448 l 1
 172 1499 258 1557 325 1640 c 1
 389 1640 l 1
 389 744 l 1
 197 744 l 1
EndSplineSet
EndChar

StartChar: ordfeminine
Encoding: 105 170 256
Width: 842
VWidth: 0
Flags: HW
LayerCount: 2
Fore
SplineSet
374 144 m 0
 424 144 467 181 485 219 c 1
 485 408 l 1
 405 365 303 317 303 228 c 0
 303 176 328 144 374 144 c 0
301 -10 m 0
 190 -10 108 72 108 183 c 0
 108 388 321 436 485 486 c 1
 485 580 l 2
 485 651 472 719 409 719 c 0
 336 719 319 647 319 568 c 1
 141 568 l 1
 144 742 239 863 413 863 c 0
 628 863 678 736 678 521 c 2
 678 0 l 1
 501 0 l 1
 501 111 l 1
 464 43 390 -10 301 -10 c 0
EndSplineSet
EndChar

StartChar: ordmasculine
Encoding: 117 186 257
Width: 899
VWidth: 0
Flags: HW
LayerCount: 2
Fore
SplineSet
450 -14 m 0
 187 -14 99 148 99 410 c 2
 99 729 l 2
 99 991 187 1153 450 1153 c 0
 700 1153 800 979 800 729 c 2
 800 410 l 2
 800 160 700 -14 450 -14 c 0
445 186 m 0
 576 186 574 312 574 451 c 2
 574 688 l 2
 574 828 578 952 445 952 c 0
 315 952 312 826 312 688 c 2
 312 451 l 2
 312 313 315 186 445 186 c 0
EndSplineSet
EndChar

StartChar: oslash
Encoding: 179 248 258
Width: 1024
VWidth: 0
Flags: HW
LayerCount: 2
Fore
SplineSet
384 346 m 1
 622 1015 l 1
 605 1059 574 1088 512 1088 c 0
 384 1088 384 960 384 832 c 2
 384 346 l 1
512 192 m 0
 640 192 640 320 640 448 c 2
 640 803 l 1
 431 220 l 1
 451 203 473 192 512 192 c 0
272 -222 m 1
 196 -196 l 1
 280 43 l 1
 164 118 128 264 128 448 c 2
 128 832 l 2
 128 1115 225 1298 512 1298 c 0
 595 1298 650 1284 707 1258 c 1
 789 1491 l 1
 876 1462 l 1
 784 1205 l 1
 867 1122 896 993 896 832 c 2
 896 448 l 2
 896 164 800 -18 512 -18 c 0
 449 -18 397 -10 354 6 c 1
 272 -222 l 1
EndSplineSet
EndChar

StartChar: p
Encoding: 80 112 260
Width: 1042
VWidth: 0
Flags: HW
PickledData: "(dp1
S'com.typemytype.robofont.layerData'
p2
(dp3
S'back'
p4
(dp5
S'name'
p6
S'p'
sS'lib'
p7
(dp8
sS'unicodes'
p9
(tsS'width'
p10
F1042.037037037037
sS'contours'
p11
(tsS'components'
p12
(tsS'anchors'
p13
(tsss."
LayerCount: 2
Fore
SplineSet
565 192 m 0
 680 192 695 378 695 545 c 0
 695 603 693 714 693 714 c 1
 693 874 691 1101 542 1101 c 0
 472 1101 420 1064 373 1036 c 1
 373 244 l 1
 429 211 494 192 565 192 c 0
117 -384 m 1
 117 1280 l 1
 373 1280 l 1
 373 1152 l 1
 443 1226 507 1298 633 1298 c 0
 946 1298 949 924 949 595 c 2
 949 576 l 2
 949 316 885 -18 629 -18 c 0
 513 -18 431 54 373 115 c 1
 373 -384 l 1
 117 -384 l 1
EndSplineSet
EndChar

StartChar: paragraph
Encoding: 114 182 261
Width: 952
VWidth: 0
Flags: HW
LayerCount: 2
Fore
SplineSet
382 0 m 1
 382 876 l 1
 169 876 16 991 16 1204 c 0
 16 1437 175 1536 423 1536 c 2
 896 1536 l 1
 896 0 l 1
 718 0 l 1
 718 876 l 1
 579 876 l 1
 579 0 l 1
 382 0 l 1
EndSplineSet
EndChar

StartChar: parenleft
Encoding: 8 40 262
Width: 640
VWidth: 0
Flags: HW
LayerCount: 2
Fore
SplineSet
576 -64 m 1
 137 -64 128 448 128 896 c 0
 128 1345 137 1856 576 1856 c 1
 576 1664 l 1
 404 1664 381 1390 381 1143 c 0
 381 1052 384 965 384 896 c 0
 384 826 381 737 381 645 c 0
 381 399 404 128 576 128 c 1
 576 -64 l 1
EndSplineSet
EndChar

StartChar: parenright
Encoding: 9 41 263
Width: 640
VWidth: 0
Flags: HW
LayerCount: 2
Fore
SplineSet
64 -64 m 1
 64 128 l 1
 236 128 259 402 259 649 c 0
 259 740 256 827 256 896 c 0
 256 966 259 1055 259 1147 c 0
 259 1393 236 1664 64 1664 c 1
 64 1856 l 1
 503 1856 512 1344 512 896 c 0
 512 447 503 -64 64 -64 c 1
EndSplineSet
EndChar

StartChar: percent
Encoding: 5 37 264
Width: 1999
VWidth: 0
Flags: HW
LayerCount: 2
Fore
SplineSet
1554 0 m 0
 1294 0 1188 223 1188 492 c 0
 1188 766 1289 975 1554 975 c 0
 1819 975 1921 765 1921 492 c 0
 1921 220 1816 0 1554 0 c 0
1554 195 m 0
 1671 195 1688 374 1688 492 c 0
 1688 613 1674 780 1554 780 c 0
 1434 780 1421 611 1421 492 c 0
 1421 375 1439 195 1554 195 c 0
751 0 m 1
 1034 1518 l 1
 1253 1518 l 1
 971 0 l 1
 751 0 l 1
444 541 m 0
 184 541 78 763 78 1032 c 0
 78 1307 178 1516 444 1516 c 0
 709 1516 811 1305 811 1032 c 0
 811 761 704 541 444 541 c 0
444 735 m 0
 561 735 578 914 578 1032 c 0
 578 1154 564 1321 444 1321 c 0
 324 1321 311 1152 311 1032 c 0
 311 914 329 735 444 735 c 0
EndSplineSet
EndChar

StartChar: period
Encoding: 14 46 265
Width: 384
VWidth: 0
Flags: HW
LayerCount: 2
Fore
SplineSet
64 0 m 1
 64 256 l 1
 320 256 l 1
 320 0 l 1
 64 0 l 1
EndSplineSet
EndChar

StartChar: plus
Encoding: 11 43 267
Width: 704
VWidth: 0
Flags: HW
LayerCount: 2
Fore
SplineSet
256 384 m 1
 256 576 l 1
 64 576 l 1
 64 768 l 1
 256 768 l 1
 256 960 l 1
 448 960 l 1
 448 768 l 1
 640 768 l 1
 640 576 l 1
 448 576 l 1
 448 384 l 1
 256 384 l 1
EndSplineSet
EndChar

StartChar: plusminus
Encoding: 112 177 268
Width: 832
VWidth: 0
Flags: HW
LayerCount: 2
Fore
SplineSet
128 0 m 1
 128 192 l 1
 704 192 l 1
 704 0 l 1
 128 0 l 1
320 384 m 1
 320 576 l 1
 128 576 l 1
 128 768 l 1
 320 768 l 1
 320 960 l 1
 512 960 l 1
 512 768 l 1
 704 768 l 1
 704 576 l 1
 512 576 l 1
 512 384 l 1
 320 384 l 1
EndSplineSet
EndChar

StartChar: product
Encoding: 394 8719 269
Width: 1216
VWidth: 0
Flags: HW
LayerCount: 2
Fore
SplineSet
128 0 m 1
 128 1792 l 1
 1088 1792 l 1
 1088 0 l 1
 832 0 l 1
 832 1600 l 1
 384 1600 l 1
 384 0 l 1
 128 0 l 1
EndSplineSet
EndChar

StartChar: q
Encoding: 81 113 270
Width: 1012
VWidth: 0
Flags: HW
PickledData: "(dp1
S'com.typemytype.robofont.layerData'
p2
(dp3
S'back'
p4
(dp5
S'name'
p6
S'q'
sS'lib'
p7
(dp8
sS'unicodes'
p9
(tsS'width'
p10
F1012.2592592592592
sS'contours'
p11
(tsS'components'
p12
(tsS'anchors'
p13
(tsss."
LayerCount: 2
Fore
SplineSet
476 192 m 0
 547 192 612 212 668 244 c 1
 668 1036 l 1
 621 1064 569 1101 499 1101 c 0
 345 1101 346 863 346 704 c 0
 346 650 345 580 346 510 c 0
 349 353 369 192 476 192 c 0
668 -384 m 1
 668 115 l 1
 609 53 528 -18 412 -18 c 0
 156 -18 92 317 92 576 c 0
 92 640 92 706 92 771 c 0
 92 1040 149 1298 408 1298 c 0
 530 1298 601 1223 668 1152 c 1
 668 1280 l 1
 924 1280 l 1
 924 -384 l 1
 668 -384 l 1
EndSplineSet
EndChar

StartChar: question
Encoding: 31 63 271
Width: 1152
VWidth: 0
Flags: HW
LayerCount: 2
Fore
SplineSet
384 0 m 1
 384 256 l 1
 640 256 l 1
 640 0 l 1
 384 0 l 1
384 384 m 1
 384 704 l 1
 563 811 768 956 768 1216 c 0
 768 1344 704 1408 576 1408 c 0
 423 1408 384 1308 384 1152 c 1
 128 1152 l 1
 128 1216 l 2
 128 1509 287 1664 576 1664 c 0
 869 1664 1025 1505 1025 1216 c 0
 1025 916 863 747 640 640 c 1
 640 384 l 1
 384 384 l 1
EndSplineSet
EndChar

StartChar: questiondown
Encoding: 122 191 272
Width: 891
VWidth: 0
Flags: HW
LayerCount: 2
Fore
SplineSet
343 1106 m 1
 343 1329 l 1
 564 1329 l 1
 564 1106 l 1
 343 1106 l 1
430 -5 m 0
 194 -5 80 114 80 346 c 0
 80 545 243 704 349 812 c 1
 349 1029 l 1
 565 1029 l 1
 565 760 l 1
 485 659 318 495 318 328 c 0
 318 250 350 202 430 202 c 0
 546 202 571 306 571 421 c 1
 790 421 l 1
 790 396 l 2
 790 155 672 -5 430 -5 c 0
EndSplineSet
EndChar

StartChar: quotedbl
Encoding: 2 34 273
Width: 704
VWidth: 0
Flags: HW
LayerCount: 2
Fore
SplineSet
449 1328 m 1
 385 1792 l 1
 641 1792 l 1
 577 1328 l 1
 449 1328 l 1
126 1328 m 1
 62 1792 l 1
 318 1792 l 1
 254 1328 l 1
 126 1328 l 1
EndSplineSet
EndChar

StartChar: quotedblbase
Encoding: 385 8222 274
Width: 704
VWidth: 0
Flags: HW
LayerCount: 2
Fore
SplineSet
449 -320 m 1
 385 64 l 1
 641 64 l 1
 577 -320 l 1
 449 -320 l 1
126 -320 m 1
 62 64 l 1
 318 64 l 1
 254 -320 l 1
 126 -320 l 1
EndSplineSet
EndChar

StartChar: quotedblleft
Encoding: 383 8220 275
Width: 896
VWidth: 0
Flags: HW
LayerCount: 2
Fore
SplineSet
512 1280 m 1
 512 1343 509 1408 509 1469 c 0
 509 1644 532 1792 704 1792 c 1
 768 1664 l 1
 675 1664 640 1625 640 1536 c 1
 768 1536 l 1
 768 1280 l 1
 512 1280 l 1
128 1280 m 1
 128 1343 125 1408 125 1469 c 0
 125 1644 148 1792 320 1792 c 1
 384 1664 l 1
 291 1664 256 1625 256 1536 c 1
 384 1536 l 1
 384 1280 l 1
 128 1280 l 1
EndSplineSet
EndChar

StartChar: quotedblright
Encoding: 384 8221 276
Width: 896
VWidth: 0
Flags: HW
LayerCount: 2
Fore
SplineSet
576 1280 m 1
 512 1408 l 1
 605 1408 640 1447 640 1536 c 1
 512 1536 l 1
 512 1792 l 1
 768 1792 l 1
 768 1696 767 1615 765 1550 c 0
 760 1388 738 1280 576 1280 c 1
192 1280 m 1
 128 1408 l 1
 221 1408 256 1447 256 1536 c 1
 128 1536 l 1
 128 1792 l 1
 384 1792 l 1
 384 1696 383 1615 381 1550 c 0
 376 1388 354 1280 192 1280 c 1
EndSplineSet
EndChar

StartChar: quoteleft
Encoding: 380 8216 277
Width: 512
VWidth: 0
Flags: HW
LayerCount: 2
Fore
SplineSet
128 1280 m 1
 128 1343 125 1408 125 1469 c 0
 125 1644 148 1792 320 1792 c 1
 384 1664 l 1
 291 1664 256 1625 256 1536 c 1
 384 1536 l 1
 384 1280 l 1
 128 1280 l 1
EndSplineSet
EndChar

StartChar: quoteright
Encoding: 381 8217 278
Width: 512
VWidth: 0
Flags: HW
LayerCount: 2
Fore
SplineSet
192 1280 m 1
 128 1408 l 1
 221 1408 256 1447 256 1536 c 1
 128 1536 l 1
 128 1792 l 1
 384 1792 l 1
 384 1696 383 1615 381 1550 c 0
 376 1388 354 1280 192 1280 c 1
EndSplineSet
EndChar

StartChar: quotesinglbase
Encoding: 382 8218 279
Width: 384
VWidth: 0
Flags: HW
LayerCount: 2
Fore
SplineSet
126 -321 m 1
 62 63 l 1
 318 63 l 1
 254 -321 l 1
 126 -321 l 1
EndSplineSet
EndChar

StartChar: quotesingle
Encoding: 7 39 280
Width: 384
VWidth: 0
Flags: HW
LayerCount: 2
Fore
SplineSet
126 1328 m 1
 62 1792 l 1
 318 1792 l 1
 254 1328 l 1
 126 1328 l 1
EndSplineSet
EndChar

StartChar: r
Encoding: 82 114 281
Width: 693
VWidth: 0
Flags: HW
PickledData: "(dp1
S'com.typemytype.robofont.layerData'
p2
(dp3
S'back'
p4
(dp5
S'name'
p6
S'r'
sS'lib'
p7
(dp8
sS'unicodes'
p9
(tsS'width'
p10
I635
sS'contours'
p11
(tsS'components'
p12
(tsS'anchors'
p13
(tsss."
LayerCount: 2
Fore
SplineSet
117 0 m 1
 117 1280 l 1
 373 1280 l 1
 373 1109 l 1
 419 1198 520 1298 652 1298 c 0
 665 1298 674 1296 693 1294 c 1
 693 1011 l 1
 655 1026 601 1039 551 1039 c 0
 445 1039 373 970 373 864 c 2
 373 0 l 1
 117 0 l 1
EndSplineSet
EndChar

StartChar: registered
Encoding: 109 174 285
Width: 1528
VWidth: 0
Flags: HW
LayerCount: 2
Fore
SplineSet
764 -14 m 0
 358 -14 70 295 70 700 c 0
 70 1107 358 1415 764 1415 c 0
 1170 1415 1458 1106 1458 700 c 0
 1458 294 1169 -14 764 -14 c 0
764 133 m 0
 1075 133 1286 384 1286 696 c 0
 1286 1011 1076 1260 764 1260 c 0
 450 1260 242 1010 242 696 c 0
 242 384 454 133 764 133 c 0
672 729 m 1
 705 729 l 2
 830 729 866 768 866 897 c 0
 866 993 834 1049 743 1049 c 2
 672 1049 l 1
 672 729 l 1
516 248 m 1
 516 1167 l 1
 756 1167 l 2
 940 1167 1026 1073 1026 893 c 0
 1026 774 976 711 901 670 c 1
 1049 248 l 1
 881 248 l 1
 754 633 l 1
 672 633 l 1
 672 248 l 1
 516 248 l 1
EndSplineSet
EndChar

StartChar: ring
Encoding: 352 730 286
Width: 640
VWidth: 0
Flags: HW
LayerCount: 2
Fore
SplineSet
320 1408 m 0
 163 1408 64 1510 64 1664 c 0
 64 1818 164 1920 320 1920 c 0
 477 1920 576 1818 576 1664 c 0
 576 1510 476 1408 320 1408 c 0
320 1536 m 0
 400 1536 448 1585 448 1664 c 0
 448 1743 400 1792 320 1792 c 0
 239 1792 192 1743 192 1664 c 0
 192 1585 239 1536 320 1536 c 0
EndSplineSet
EndChar

StartChar: s
Encoding: 83 115 287
Width: 876
VWidth: 0
Flags: HW
PickledData: "(dp1
S'com.typemytype.robofont.layerData'
p2
(dp3
S'back'
p4
(dp5
S'name'
p6
S's'
sS'lib'
p7
(dp8
sS'unicodes'
p9
(tsS'width'
p10
I782
sS'contours'
p11
(tsS'components'
p12
(tsS'anchors'
p13
(tsss."
LayerCount: 2
Fore
SplineSet
453 -18 m 0
 228 -18 112 138 69 320 c 1
 261 384 l 1
 290 303 345 192 453 192 c 0
 534 192 581 238 581 320 c 0
 581 390 553 435 517 468 c 1
 261 660 l 1
 164 727 69 808 69 960 c 0
 69 1184 226 1298 453 1298 c 0
 682 1298 794 1142 837 960 c 1
 645 896 l 1
 614 977 563 1088 453 1088 c 0
 372 1088 325 1042 325 960 c 0
 325 910 361 873 389 852 c 2
 645 660 l 1
 746 579 837 482 837 320 c 0
 837 96 680 -18 453 -18 c 0
EndSplineSet
EndChar

StartChar: section
Encoding: 102 167 293
Width: 960
VWidth: 0
Flags: HW
LayerCount: 2
Fore
SplineSet
512 754 m 1
 559 776 608 812 608 882 c 0
 608 966 499 1034 448 1074 c 1
 401 1046 352 1000 352 925 c 0
 352 876 386 836 416 817 c 2
 512 754 l 1
480 -17 m 0
 254 -17 139 140 96 321 c 1
 288 385 l 1
 317 304 373 193 480 193 c 0
 561 193 608 239 608 321 c 0
 608 387 582 446 544 469 c 2
 288 625 l 1
 182 688 96 766 96 925 c 0
 96 1077 170 1176 282 1226 c 1
 191 1279 96 1340 96 1472 c 0
 96 1696 253 1810 480 1810 c 0
 708 1810 821 1654 864 1472 c 1
 672 1408 l 1
 641 1489 590 1600 480 1600 c 0
 399 1600 352 1554 352 1472 c 0
 352 1422 388 1385 416 1364 c 1
 608 1258 864 1143 864 882 c 0
 864 743 800 650 706 596 c 1
 787 531 864 450 864 321 c 0
 864 97 707 -17 480 -17 c 0
EndSplineSet
EndChar

StartChar: semicolon
Encoding: 27 59 294
Width: 384
VWidth: 0
Flags: HW
LayerCount: 2
Fore
SplineSet
64 832 m 1
 64 1088 l 1
 320 1088 l 1
 320 832 l 1
 64 832 l 1
128 0 m 1
 64 128 l 1
 157 128 192 167 192 256 c 1
 64 256 l 1
 64 512 l 1
 320 512 l 1
 320 416 319 335 317 270 c 0
 312 108 290 0 128 0 c 1
EndSplineSet
EndChar

StartChar: seven
Encoding: 23 55 295
Width: 826
VWidth: 0
Flags: HW
LayerCount: 2
Fore
SplineSet
190 0 m 1
 518 1579 l 1
 45 1579 l 1
 45 1792 l 1
 762 1792 l 1
 762 1669 l 1
 436 0 l 1
 190 0 l 1
EndSplineSet
EndChar

StartChar: six
Encoding: 22 54 296
Width: 1083
VWidth: 0
Flags: HW
LayerCount: 2
Fore
SplineSet
560 192 m 0
 713 192 752 356 752 512 c 0
 752 704 752 896 560 896 c 0
 462 896 402 832 368 768 c 1
 368 512 l 2
 368 355 408 192 560 192 c 0
560 -18 m 0
 246 -18 112 254 112 576 c 2
 112 1152 l 2
 112 1503 213 1810 560 1810 c 0
 850 1810 1008 1636 1008 1344 c 1
 752 1344 l 1
 752 1501 714 1600 560 1600 c 0
 432 1600 368 1472 368 1216 c 2
 368 960 l 1
 413 1038 497 1088 624 1088 c 0
 921 1088 1008 870 1008 576 c 0
 1008 251 884 -18 560 -18 c 0
EndSplineSet
EndChar

StartChar: slash
Encoding: 15 47 297
Width: 832
VWidth: 0
Flags: HW
LayerCount: 2
Fore
SplineSet
0 0 m 1
 575 1792 l 1
 832 1792 l 1
 256 0 l 1
 0 0 l 1
EndSplineSet
EndChar

StartChar: sterling
Encoding: 98 163 299
Width: 896
VWidth: 0
Flags: HW
LayerCount: 2
Fore
SplineSet
0 0 m 1
 0 128 l 1
 128 191 l 1
 128 768 l 1
 0 768 l 1
 0 960 l 1
 128 960 l 1
 128 1152 l 2
 128 1498 165 1810 512 1810 c 0
 743 1810 830 1647 832 1422 c 1
 832 1344 l 1
 640 1344 l 1
 640 1462 629 1600 512 1600 c 0
 398 1600 387 1448 384 1330 c 1
 384 960 l 1
 640 960 l 1
 640 768 l 1
 384 768 l 1
 384 192 l 1
 832 192 l 1
 832 0 l 1
 0 0 l 1
EndSplineSet
EndChar

StartChar: t
Encoding: 84 116 300
Width: 700
VWidth: 0
Flags: HW
PickledData: "(dp1
S'com.typemytype.robofont.layerData'
p2
(dp3
S'back'
p4
(dp5
S'name'
p6
S't'
sS'lib'
p7
(dp8
sS'unicodes'
p9
(tsS'width'
p10
I616
sS'contours'
p11
(tsS'components'
p12
(tsS'anchors'
p13
(tsss."
LayerCount: 2
Fore
SplineSet
472 -18 m 0
 266 -18 184 90 182 292 c 1
 182 1088 l 1
 54 1088 l 1
 54 1280 l 1
 182 1280 l 1
 182 1728 l 1
 438 1728 l 1
 438 1280 l 1
 630 1280 l 1
 630 1088 l 1
 438 1088 l 1
 438 341 l 2
 438 250 452 192 544 192 c 0
 568 192 607 198 630 202 c 1
 630 -6 l 1
 566 -14 534 -18 472 -18 c 0
EndSplineSet
EndChar

StartChar: thorn
Encoding: 185 254 302
Width: 1056
VWidth: 0
Flags: HW
LayerCount: 2
Fore
SplineSet
576 192 m 0
 691 192 706 378 706 546 c 2
 706 823 l 2
 706 954 692 1088 576 1088 c 0
 505 1088 431 1065 384 1037 c 1
 384 232 l 1
 441 209 510 192 576 192 c 0
128 -410 m 1
 128 1791 l 1
 384 1791 l 1
 384 1153 l 1
 453 1226 518 1298 644 1298 c 0
 957 1298 960 926 960 594 c 0
 960 327 902 -18 640 -18 c 0
 523 -18 443 55 384 116 c 1
 384 -410 l 1
 128 -410 l 1
EndSplineSet
EndChar

StartChar: three
Encoding: 19 51 303
Width: 1027
VWidth: 0
Flags: HW
LayerCount: 2
Fore
SplineSet
526 -18 m 0
 231 -18 78 157 78 448 c 2
 78 512 l 1
 334 512 l 1
 334 334 354 192 526 192 c 0
 698 192 718 334 718 512 c 0
 718 704 654 832 462 832 c 1
 462 1088 l 1
 649 1088 718 1156 718 1344 c 0
 718 1500 679 1600 526 1600 c 0
 354 1600 334 1458 334 1280 c 1
 78 1280 l 1
 78 1344 l 2
 78 1634 233 1810 526 1810 c 0
 821 1810 974 1635 974 1344 c 0
 974 1136 873 1008 718 960 c 1
 886 904 974 745 974 512 c 0
 974 191 847 -18 526 -18 c 0
EndSplineSet
EndChar

StartChar: threequarters
Encoding: 121 190 304
Width: 1803
VWidth: 0
Flags: HW
LayerCount: 2
Fore
SplineSet
1291 386 m 1
 1419 386 l 1
 1419 642 l 1
 1291 386 l 1
1419 2 m 1
 1419 258 l 1
 1099 258 l 1
 1099 386 l 1
 1439 962 l 1
 1611 962 l 1
 1611 386 l 1
 1739 386 l 1
 1739 258 l 1
 1611 258 l 1
 1611 2 l 1
 1419 2 l 1
519 0 m 1
 1094 1792 l 1
 1351 1792 l 1
 775 0 l 1
 519 0 l 1
327 764 m 0
 162 764 71 858 71 1020 c 1
 263 1020 l 1
 263 956 263 892 327 892 c 0
 391 892 391 956 391 1020 c 0
 391 1114 360 1148 263 1148 c 1
 263 1276 l 1
 361 1276 391 1309 391 1404 c 0
 391 1468 391 1532 327 1532 c 0
 263 1532 263 1468 263 1404 c 1
 71 1404 l 1
 71 1565 162 1660 327 1660 c 0
 492 1660 583 1565 583 1404 c 0
 583 1280 506 1216 391 1212 c 1
 506 1204 583 1147 583 1020 c 0
 583 859 492 764 327 764 c 0
EndSplineSet
EndChar

StartChar: tilde
Encoding: 354 732 305
Width: 960
VWidth: 0
Flags: HW
LayerCount: 2
Fore
SplineSet
613 1452 m 0
 498 1452 428 1539 329 1539 c 0
 292 1539 281 1514 281 1472 c 1
 127 1472 l 1
 127 1617 200 1745 347 1745 c 0
 460 1745 527 1659 628 1659 c 0
 665 1659 679 1686 679 1728 c 1
 833 1728 l 1
 833 1582 760 1452 613 1452 c 0
EndSplineSet
EndChar

StartChar: trademark
Encoding: 393 8482 306
Width: 2204
VWidth: 0
Flags: HW
LayerCount: 2
Fore
SplineSet
315 686 m 1
 315 1364 l 1
 152 1364 l 1
 152 1518 l 1
 649 1518 l 1
 649 1364 l 1
 485 1364 l 1
 485 686 l 1
 315 686 l 1
741 686 m 1
 741 1518 l 1
 983 1518 l 1
 1087 1065 l 1
 1194 1518 l 1
 1436 1518 l 1
 1436 686 l 1
 1276 686 l 1
 1276 1241 l 1
 1139 686 l 1
 1036 686 l 1
 899 1241 l 1
 899 686 l 1
 741 686 l 1
EndSplineSet
EndChar

StartChar: two
Encoding: 18 50 308
Width: 1020
VWidth: 0
Flags: HW
LayerCount: 2
Fore
SplineSet
71 0 m 1
 71 256 l 1
 520 896 l 2
 615 1031 712 1144 712 1344 c 0
 712 1476 652 1600 520 1600 c 0
 367 1600 328 1436 328 1280 c 2
 328 1216 l 1
 72 1216 l 1
 72 1280 l 2
 72 1601 199 1810 520 1810 c 0
 815 1810 968 1635 968 1344 c 0
 968 1112 875 973 776 832 c 1
 328 256 l 1
 968 256 l 1
 968 0 l 1
 71 0 l 1
EndSplineSet
EndChar

StartChar: u
Encoding: 85 117 309
Width: 987
VWidth: 0
Flags: HW
LayerCount: 2
Fore
SplineSet
300 -18 m 0
 186 -18 114 75 114 189 c 2
 114 1280 l 1
 370 1280 l 1
 370 267 l 2
 370 214 406 177 458 177 c 0
 533 177 583 232 626 267 c 1
 626 1280 l 1
 882 1280 l 1
 882 0 l 1
 626 0 l 1
 626 138 l 1
 535 57 453 -18 300 -18 c 0
EndSplineSet
EndChar

StartChar: underscore
Encoding: 63 95 317
Width: 768
VWidth: 0
Flags: HW
LayerCount: 2
Fore
SplineSet
0 0 m 1
 0 192 l 1
 768 192 l 1
 768 0 l 1
 0 0 l 1
EndSplineSet
EndChar

StartChar: uni00AD
Encoding: 108 173 318
Width: 768
VWidth: 0
Flags: HW
LayerCount: 2
Fore
SplineSet
128 448 m 1
 128 640 l 1
 640 640 l 1
 640 448 l 1
 128 448 l 1
EndSplineSet
EndChar

StartChar: uni00B2
Encoding: 403 178 319
Width: 640
VWidth: 0
Flags: HW
LayerCount: 2
Fore
SplineSet
64 576 m 1
 64 704 l 1
 256 960 l 2
 310 1031 384 1107 384 1216 c 0
 384 1280 384 1344 320 1344 c 0
 256 1344 256 1280 256 1216 c 1
 64 1216 l 1
 64 1377 155 1472 320 1472 c 0
 485 1472 576 1377 576 1216 c 0
 576 1012 359 841 256 704 c 1
 576 704 l 1
 576 576 l 1
 64 576 l 1
EndSplineSet
EndChar

StartChar: uni00B3
Encoding: 402 179 320
Width: 768
VWidth: 0
Flags: HW
LayerCount: 2
Fore
SplineSet
384 640 m 0
 219 640 128 734 128 896 c 1
 320 896 l 1
 320 832 320 768 384 768 c 0
 448 768 448 832 448 896 c 0
 448 990 417 1024 320 1024 c 1
 320 1152 l 1
 418 1152 448 1185 448 1280 c 0
 448 1344 448 1408 384 1408 c 0
 320 1408 320 1344 320 1280 c 1
 128 1280 l 1
 128 1441 219 1536 384 1536 c 0
 549 1536 640 1441 640 1280 c 0
 640 1156 563 1092 448 1088 c 1
 563 1080 640 1023 640 896 c 0
 640 735 549 640 384 640 c 0
EndSplineSet
EndChar

StartChar: uni00B9
Encoding: 401 185 321
Width: 512
VWidth: 0
Flags: HW
LayerCount: 2
Fore
SplineSet
192 640 m 1
 192 1216 l 1
 64 1216 l 1
 64 1344 l 1
 167 1395 253 1453 320 1536 c 1
 384 1536 l 1
 384 640 l 1
 192 640 l 1
EndSplineSet
EndChar

StartChar: uni0237
Encoding: 347 567 362
Width: 576
VWidth: 0
Flags: HW
LayerCount: 2
Fore
SplineSet
128 -320 m 0
 84 -320 34 -316 0 -303 c 1
 0 -121 l 1
 15 -124 46 -128 64 -128 c 0
 157 -128 192 -68 192 21 c 2
 192 1280 l 1
 448 1280 l 1
 448 -7 l 2
 448 -206 325 -320 128 -320 c 0
EndSplineSet
EndChar

StartChar: uni030F
Encoding: 399 783 363
Width: 640
VWidth: 0
Flags: HW
LayerCount: 2
Fore
SplineSet
558 1408 m 1
 392 1792 l 1
 598 1792 l 1
 686 1408 l 1
 558 1408 l 1
264 1408 m 1
 8 1792 l 1
 264 1792 l 1
 392 1408 l 1
 264 1408 l 1
EndSplineSet
EndChar

StartChar: uni0311
Encoding: 407 785 364
Width: 768
VWidth: 0
Flags: HW
LayerCount: 2
Fore
SplineSet
64 1408 m 1
 64 1661 133 1792 384 1792 c 0
 632 1792 704 1660 704 1408 c 1
 512 1408 l 1
 512 1529 498 1600 384 1600 c 0
 271 1600 256 1528 256 1408 c 1
 64 1408 l 1
EndSplineSet
EndChar

StartChar: uni0326
Encoding: 408 806 365
Width: 330
VWidth: 0
Flags: HW
LayerCount: 2
Fore
SplineSet
101 -591 m 1
 37 -463 l 1
 130 -463 165 -424 165 -335 c 1
 37 -335 l 1
 37 -79 l 1
 293 -79 l 1
 293 -175 292 -256 290 -321 c 0
 285 -483 263 -591 101 -591 c 1
EndSplineSet
EndChar

StartChar: uni2074
Encoding: 409 8308 366
Width: 768
VWidth: 0
Flags: HW
LayerCount: 2
Fore
SplineSet
256 960 m 1
 384 960 l 1
 384 1216 l 1
 256 960 l 1
384 576 m 1
 384 832 l 1
 64 832 l 1
 64 960 l 1
 404 1536 l 1
 576 1536 l 1
 576 960 l 1
 704 960 l 1
 704 832 l 1
 576 832 l 1
 576 576 l 1
 384 576 l 1
EndSplineSet
EndChar

StartChar: uniFB00
Encoding: 396 -1 367
Width: 1220
VWidth: 0
Flags: HW
LayerCount: 2
Fore
SplineSet
174 0 m 1
 174 1088 l 1
 46 1088 l 1
 46 1280 l 1
 174 1280 l 1
 174 1329 l 2
 174 1577 215 1728 464 1728 c 0
 526 1728 558 1724 622 1716 c 1
 622 1526 l 1
 596 1528 561 1536 536 1536 c 0
 444 1536 430 1468 430 1376 c 2
 430 1280 l 1
 774 1280 l 1
 774 1329 l 2
 774 1577 815 1728 1064 1728 c 0
 1126 1728 1158 1724 1222 1716 c 1
 1222 1526 l 1
 1196 1528 1161 1536 1136 1536 c 0
 1044 1536 1030 1468 1030 1376 c 2
 1030 1280 l 1
 1222 1280 l 1
 1222 1088 l 1
 1030 1088 l 1
 1030 0 l 1
 774 0 l 1
 774 1088 l 1
 430 1088 l 1
 430 0 l 1
 174 0 l 1
EndSplineSet
EndChar

StartChar: uniFB01
Encoding: 397 64257 368
Width: 1186
VWidth: 0
Flags: HW
LayerCount: 2
Fore
SplineSet
802 1472 m 1
 802 1728 l 1
 1058 1728 l 1
 1058 1472 l 1
 802 1472 l 1
174 0 m 1
 174 1088 l 1
 46 1088 l 1
 46 1280 l 1
 174 1280 l 1
 174 1329 l 2
 174 1577 215 1728 464 1728 c 0
 526 1728 558 1724 622 1716 c 1
 622 1526 l 1
 596 1528 561 1536 536 1536 c 0
 444 1536 430 1468 430 1376 c 2
 430 1280 l 1
 1058 1280 l 1
 1058 0 l 1
 802 0 l 1
 802 1088 l 1
 430 1088 l 1
 430 0 l 1
 174 0 l 1
EndSplineSet
EndChar

StartChar: uniFB02
Encoding: 398 64258 369
Width: 1161
VWidth: 0
Flags: HW
LayerCount: 2
Fore
SplineSet
174 0 m 1
 174 1088 l 1
 46 1088 l 1
 46 1280 l 1
 174 1280 l 1
 174 1329 l 2
 174 1577 215 1728 464 1728 c 0
 691 1728 808 1712 1042 1681 c 1
 1042 0 l 1
 786 0 l 1
 786 1522 l 1
 697 1530 609 1536 536 1536 c 0
 444 1536 430 1468 430 1376 c 2
 430 1280 l 1
 622 1280 l 1
 622 1088 l 1
 430 1088 l 1
 430 0 l 1
 174 0 l 1
EndSplineSet
EndChar

StartChar: uniFB03
Encoding: 410 -1 370
Width: 1718
VWidth: 0
Flags: HW
LayerCount: 2
Fore
SplineSet
1334 1472 m 1
 1334 1728 l 1
 1590 1728 l 1
 1590 1472 l 1
 1334 1472 l 1
174 0 m 1
 174 1088 l 1
 46 1088 l 1
 46 1280 l 1
 174 1280 l 1
 174 1329 l 2
 174 1577 215 1728 464 1728 c 0
 526 1728 558 1724 622 1716 c 1
 622 1526 l 1
 596 1528 561 1536 536 1536 c 0
 444 1536 430 1468 430 1376 c 2
 430 1280 l 1
 736 1280 l 1
 736 1329 l 2
 736 1577 777 1728 1026 1728 c 0
 1088 1728 1120 1724 1184 1716 c 1
 1184 1526 l 1
 1158 1528 1123 1536 1098 1536 c 0
 1006 1536 992 1468 992 1376 c 2
 992 1280 l 1
 1590 1280 l 1
 1590 0 l 1
 1334 0 l 1
 1334 1088 l 1
 992 1088 l 1
 992 0 l 1
 736 0 l 1
 736 1088 l 1
 430 1088 l 1
 430 0 l 1
 174 0 l 1
EndSplineSet
EndChar

StartChar: uniFB04
Encoding: 411 -1 371
Width: 1677
VWidth: 0
Flags: HW
LayerCount: 2
Fore
SplineSet
174 0 m 1
 174 1088 l 1
 46 1088 l 1
 46 1280 l 1
 174 1280 l 1
 174 1329 l 2
 174 1577 215 1728 464 1728 c 0
 526 1728 558 1724 622 1716 c 1
 622 1526 l 1
 596 1528 561 1536 536 1536 c 0
 444 1536 430 1468 430 1376 c 2
 430 1280 l 1
 712 1280 l 1
 712 1329 l 2
 712 1577 753 1728 1002 1728 c 0
 1220 1728 1333 1712 1558 1681 c 1
 1558 0 l 1
 1302 0 l 1
 1302 1522 l 1
 1221 1530 1141 1536 1074 1536 c 0
 982 1536 968 1468 968 1376 c 2
 968 1280 l 1
 1160 1280 l 1
 1160 1088 l 1
 968 1088 l 1
 968 0 l 1
 712 0 l 1
 712 1088 l 1
 430 1088 l 1
 430 0 l 1
 174 0 l 1
EndSplineSet
EndChar

StartChar: v
Encoding: 86 118 375
Width: 872
VWidth: 0
Flags: HW
PickledData: "(dp1
S'com.typemytype.robofont.layerData'
p2
(dp3
S'back'
p4
(dp5
S'name'
p6
S'v'
sS'lib'
p7
(dp8
sS'unicodes'
p9
(tsS'width'
p10
I872
sS'contours'
p11
(tsS'components'
p12
(tsS'anchors'
p13
(tsss."
LayerCount: 2
Fore
SplineSet
308 0 m 1
 20 1280 l 1
 266 1280 l 1
 444 319 l 5
 606 1280 l 1
 852 1280 l 1
 566 0 l 1
 308 0 l 1
EndSplineSet
EndChar

StartChar: w
Encoding: 87 119 376
Width: 1281
VWidth: 0
Flags: HW
PickledData: "(dp1
S'com.typemytype.robofont.layerData'
p2
(dp3
S'back'
p4
(dp5
S'name'
p6
S'w'
sS'lib'
p7
(dp8
sS'unicodes'
p9
(tsS'width'
p10
I1281
sS'contours'
p11
(tsS'components'
p12
(tsS'anchors'
p13
(tsss."
LayerCount: 2
Fore
SplineSet
257 0 m 1
 20 1280 l 1
 247 1280 l 1
 389 308 l 1
 523 1280 l 1
 757 1280 l 1
 893 318 l 1
 1033 1280 l 1
 1261 1280 l 1
 1013 0 l 1
 777 0 l 1
 641 882 l 1
 503 0 l 1
 257 0 l 1
EndSplineSet
EndChar

StartChar: x
Encoding: 88 120 381
Width: 866
VWidth: 0
Flags: HW
PickledData: "(dp1
S'com.typemytype.robofont.layerData'
p2
(dp3
S'back'
p4
(dp5
S'name'
p6
S'x'
sS'lib'
p7
(dp8
sS'unicodes'
p9
(tsS'width'
p10
I862
sS'contours'
p11
(tsS'components'
p12
(tsS'anchors'
p13
(tsss."
LayerCount: 2
Fore
SplineSet
17 0 m 1
 273 640 l 1
 273 666 l 1
 17 1280 l 1
 264 1280 l 1
 435 791 l 1
 606 1280 l 1
 849 1280 l 1
 593 666 l 1
 593 640 l 1
 849 0 l 1
 593 0 l 1
 441 493 l 5
 273 0 l 1
 17 0 l 1
EndSplineSet
EndChar

StartChar: y
Encoding: 89 121 382
Width: 872
VWidth: 0
Flags: HW
PickledData: "(dp1
S'com.typemytype.robofont.layerData'
p2
(dp3
S'back'
p4
(dp5
S'name'
p6
S'y'
sS'lib'
p7
(dp8
sS'unicodes'
p9
(tsS'width'
p10
I872
sS'contours'
p11
(tsS'components'
p12
(tsS'anchors'
p13
(tsss."
LayerCount: 2
Fore
SplineSet
84 -320 m 1
 84 -128 l 1
 288 -128 310 -72 310 58 c 1
 20 1280 l 1
 276 1280 l 1
 330 981 386 685 437 384 c 1
 485 688 543 981 596 1280 c 1
 852 1280 l 1
 532 -64 l 1
 488 -256 346 -320 110 -320 c 0
 101 -320 93 -320 84 -320 c 1
EndSplineSet
EndChar

StartChar: yen
Encoding: 100 165 386
Width: 1024
VWidth: 0
Flags: HW
LayerCount: 2
Fore
SplineSet
384 0 m 1
 384 256 l 1
 192 256 l 1
 192 424 l 1
 384 424 l 1
 384 553 l 1
 192 553 l 1
 192 719 l 1
 341 719 l 1
 48 1792 l 1
 308 1792 l 1
 512 848 l 1
 714 1792 l 1
 974 1792 l 1
 679 719 l 1
 832 719 l 1
 832 553 l 1
 640 553 l 1
 640 424 l 1
 832 424 l 1
 832 256 l 1
 640 256 l 1
 640 0 l 1
 384 0 l 1
EndSplineSet
EndChar

StartChar: z
Encoding: 90 122 388
Width: 818
VWidth: 0
Flags: HW
PickledData: "(dp1
S'com.typemytype.robofont.layerData'
p2
(dp3
S'back'
p4
(dp5
S'name'
p6
S'z'
sS'lib'
p7
(dp8
sS'unicodes'
p9
(tsS'width'
p10
I822
sS'contours'
p11
(tsS'components'
p12
(tsS'anchors'
p13
(tsss."
LayerCount: 2
Fore
SplineSet
71 0 m 1
 71 192 l 1
 519 1088 l 1
 135 1088 l 1
 135 1280 l 1
 775 1280 l 1
 775 1088 l 1
 327 192 l 1
 775 192 l 1
 775 0 l 1
 71 0 l 1
EndSplineSet
EndChar

StartChar: zdotaccent
Encoding: 301 380 391
Width: 782
VWidth: 0
Flags: HW
LayerCount: 2
Fore
SplineSet
265 1400 m 1
 265 1656 l 1
 521 1656 l 1
 521 1400 l 1
 265 1400 l 1
EndSplineSet
Refer: 388 122 N 1 0 0 1 0 0 2
EndChar

StartChar: zero
Encoding: 16 48 392
Width: 1088
VWidth: 0
Flags: HW
LayerCount: 2
Fore
SplineSet
544 -18 m 0
 244 -18 96 204 96 512 c 2
 96 1280 l 2
 96 1597 235 1810 544 1810 c 0
 851 1810 992 1596 992 1280 c 2
 992 512 l 2
 992 202 846 -18 544 -18 c 0
544 192 m 0
 701 192 736 357 736 512 c 2
 736 1280 l 2
 736 1443 708 1600 544 1600 c 0
 380 1600 352 1443 352 1280 c 2
 352 512 l 2
 352 357 389 192 544 192 c 0
EndSplineSet
EndChar

StartChar: florin
Encoding: 304 402 412
Width: 704
VWidth: 0
Flags: HW
LayerCount: 2
Fore
SplineSet
158 -256 m 0
 96 -256 64 -252 0 -244 c 1
 0 -54 l 1
 24 -58 62 -64 86 -64 c 0
 178 -64 192 4 192 96 c 2
 192 1088 l 1
 56 1088 l 1
 56 1280 l 1
 192 1280 l 1
 192 1344 l 2
 192 1586 236 1728 482 1728 c 0
 544 1728 576 1724 640 1716 c 1
 640 1526 l 1
 614 1528 579 1536 554 1536 c 0
 462 1536 448 1468 448 1376 c 2
 448 1280 l 1
 632 1280 l 1
 632 1088 l 1
 448 1088 l 1
 448 128 l 2
 448 -116 405 -256 158 -256 c 0
EndSplineSet
EndChar

StartChar: dagger
Encoding: 386 8224 413
Width: 850
VWidth: 0
Flags: HW
LayerCount: 2
Fore
SplineSet
300 0 m 1
 300 990 l 5
 100 990 l 5
 100 1190 l 5
 300 1190 l 5
 300 1536 l 1
 550 1536 l 1
 550 1190 l 5
 751 1190 l 5
 751 990 l 5
 550 990 l 5
 550 0 l 1
 300 0 l 1
EndSplineSet
EndChar

StartChar: uni00B5
Encoding: 414 181 414
Width: 987
VWidth: 0
Flags: HW
LayerCount: 2
Fore
SplineSet
370 267 m 0
 370 214 406 177 458 177 c 0
 533 177 583 232 626 267 c 1
 626 1280 l 1
 882 1280 l 1
 882 0 l 1
 626 0 l 1
 626 138 l 1
 582.946999775 62.3044723273 512 2 370 -0.2353515625 c 1
 370 -252 l 1
 114 -253 l 1
 114 1280 l 1
 370 1280 l 1
 370 942.333333333 370 604.666666667 370 267 c 0
EndSplineSet
EndChar

StartChar: uni2215
Encoding: 415 8725 415
Width: 537
VWidth: 0
Flags: HW
LayerCount: 2
Fore
SplineSet
18 383 m 1
 301 1901 l 1
 520 1901 l 1
 238 383 l 1
 18 383 l 1
EndSplineSet
EndChar
